<svg width="14" height="9" viewBox="0 0 14 9" fill="none" xmlns="http://www.w3.org/2000/svg">
<path d="M0.467484 0.967454C0.397187 1.03718 0.341391 1.12013 0.303314 1.21152C0.265238 1.30292 0.245634 1.40094 0.245634 1.49995C0.245634 1.59896 0.265238 1.69699 0.303314 1.78839C0.341391 1.87978 0.397187 1.96273 0.467483 2.03245L6.46748 8.03245C6.53756 8.10196 6.62067 8.15696 6.71205 8.19428C6.80343 8.23161 6.90128 8.25052 6.99998 8.24995C7.09869 8.25052 7.19653 8.23161 7.28791 8.19428C7.37929 8.15696 7.4624 8.10196 7.53248 8.03245L13.5325 2.03245C13.6024 1.96253 13.6579 1.87951 13.6957 1.78814C13.7336 1.69677 13.7531 1.59885 13.7531 1.49995C13.7531 1.40106 13.7336 1.30313 13.6957 1.21177C13.6579 1.1204 13.6024 1.03738 13.5325 0.967454C13.3913 0.826226 13.1997 0.746886 13 0.746886C12.8003 0.746886 12.6087 0.826226 12.4675 0.967454L6.99248 6.44245L1.53248 0.967454C1.46276 0.897157 1.37981 0.841362 1.28842 0.803285C1.19702 0.765209 1.09899 0.745605 0.999983 0.745605C0.900974 0.745605 0.802945 0.765209 0.711551 0.803285C0.620156 0.841362 0.537207 0.897157 0.467484 0.967454Z" fill="black"/>
</svg>
