<svg width="34" height="34" viewBox="0 0 34 34" fill="none" xmlns="http://www.w3.org/2000/svg">
<rect width="33.6364" height="33.6364" rx="7.84848" fill="#EBDCB4"/>
<path d="M25.4291 19.607V10.8981C25.4291 10.1867 24.8524 9.61007 24.1411 9.61007H22.8531V8.96607C22.8531 8.43248 22.4206 8 21.887 8H21.5651C21.0315 8 20.599 8.43248 20.599 8.96607V9.61007H17.7009V8.96607C17.7009 8.43248 17.2685 8 16.735 8H16.4129C15.8795 8 15.4469 8.43248 15.4469 8.96607V9.61007H12.8709V8.96607C12.8709 8.43248 12.4384 8 11.9049 8H11.5829C11.0494 8 10.6168 8.43248 10.6168 8.96607V9.61007H9.3288C8.61744 9.61007 8.0408 10.1867 8.0408 10.8981V23.1342C8.0408 23.8456 8.61744 24.4222 9.3288 24.4222H19.1915C19.7593 26.1776 21.4093 27.3542 23.2537 27.3192C25.0983 27.2843 26.7025 26.0458 27.2034 24.2704C27.7041 22.4948 26.9834 20.6007 25.4291 19.607ZM21.243 8.96607C21.243 8.78816 21.3872 8.644 21.5651 8.644H21.887C22.0649 8.644 22.2091 8.78816 22.2091 8.96607V10.8981C22.2091 11.0758 22.0649 11.22 21.887 11.22H21.5651C21.3872 11.22 21.243 11.0758 21.243 10.8981V8.96607ZM16.0909 8.96607C16.0909 8.78816 16.2352 8.644 16.4129 8.644H16.735C16.9128 8.644 17.0569 8.78816 17.0569 8.96607V10.8981C17.0569 11.0758 16.9128 11.22 16.735 11.22H16.4129C16.2352 11.22 16.0909 11.0758 16.0909 10.8981V8.96607ZM11.2608 8.96607C11.2608 8.78816 11.4051 8.644 11.5829 8.644H11.9049C12.0827 8.644 12.2269 8.78816 12.2269 8.96607V10.8981C12.2269 11.0758 12.0827 11.22 11.9049 11.22H11.5829C11.4051 11.22 11.2608 11.0758 11.2608 10.8981V8.96607ZM8.6848 10.8981C8.6848 10.5424 8.97312 10.2541 9.3288 10.2541H10.6168V10.8981C10.6168 11.4315 11.0494 11.864 11.5829 11.864H11.9049C12.4384 11.864 12.8709 11.4315 12.8709 10.8981V10.2541H15.4469V10.8981C15.4469 11.4315 15.8795 11.864 16.4129 11.864H16.735C17.2685 11.864 17.7009 11.4315 17.7009 10.8981V10.2541H20.599V10.8981C20.599 11.4315 21.0315 11.864 21.5651 11.864H21.887C22.4206 11.864 22.8531 11.4315 22.8531 10.8981V10.2541H24.1411C24.4968 10.2541 24.7851 10.5424 24.7851 10.8981V13.1521H8.6848V10.8981ZM9.3288 23.7782C8.97312 23.7782 8.6848 23.4899 8.6848 23.1342V13.7961H24.7851V19.2679C24.7748 19.2637 24.7639 19.2605 24.7528 19.2564C24.6859 19.2289 24.6176 19.2048 24.5494 19.1813C24.5171 19.1697 24.485 19.1569 24.4505 19.1462C24.348 19.114 24.2447 19.0843 24.1403 19.0599C22.8949 18.7665 21.5837 19.0582 20.58 19.852C19.5763 20.6458 18.9904 21.8546 18.9889 23.1342C18.99 23.2933 19 23.452 19.0193 23.6099C19.0228 23.642 19.0261 23.6743 19.0305 23.7064C19.0337 23.7303 19.0354 23.7548 19.0389 23.7782H9.3288ZM23.175 26.6763C21.6388 26.6813 20.2759 25.6915 19.8055 24.229C19.7856 24.1631 19.7653 24.0976 19.747 24.0168C19.6704 23.729 19.6321 23.4321 19.6329 23.1342C19.6343 22.0512 20.1303 21.0283 20.9799 20.3566C21.8294 19.6849 22.9392 19.4382 23.9932 19.6868C24.0898 19.7093 24.1846 19.737 24.2786 19.768C24.5109 19.8433 24.735 19.9428 24.9468 20.0646C26.3375 20.8652 27.0162 22.501 26.6008 24.051C26.1854 25.6011 24.7798 26.6782 23.175 26.6763Z" fill="#6C6259"/>
<path d="M13.1929 14.7621H11.2607C10.9052 14.7621 10.6167 15.0504 10.6167 15.4061V17.3381C10.6167 17.6937 10.9052 17.9822 11.2607 17.9822H13.1929C13.5486 17.9822 13.8369 17.6937 13.8369 17.3381V15.4061C13.8369 15.0504 13.5486 14.7621 13.1929 14.7621ZM11.2607 17.3381V15.4061H13.1929V17.3381H11.2607Z" fill="#6C6259"/>
<path d="M17.7009 14.7621H15.7689C15.4132 14.7621 15.1249 15.0504 15.1249 15.4061V17.3381C15.1249 17.6937 15.4132 17.9822 15.7689 17.9822H17.7009C18.0566 17.9822 18.3449 17.6937 18.3449 17.3381V15.4061C18.3449 15.0504 18.0566 14.7621 17.7009 14.7621ZM15.7689 17.3381V15.4061H17.7009V17.3381H15.7689Z" fill="#6C6259"/>
<path d="M13.1929 18.6262H11.2607C10.9052 18.6262 10.6167 18.9145 10.6167 19.2702V21.2022C10.6167 21.5579 10.9052 21.8462 11.2607 21.8462H13.1929C13.5486 21.8462 13.8369 21.5579 13.8369 21.2022V19.2702C13.8369 18.9145 13.5486 18.6262 13.1929 18.6262ZM11.2607 21.2022V19.2702H13.1929V21.2022H11.2607Z" fill="#6C6259"/>
<path d="M17.7009 18.6262H15.7689C15.4132 18.6262 15.1249 18.9145 15.1249 19.2702V21.2022C15.1249 21.5579 15.4132 21.8462 15.7689 21.8462H17.7009C18.0566 21.8462 18.3449 21.5579 18.3449 21.2022V19.2702C18.3449 18.9145 18.0566 18.6262 17.7009 18.6262ZM15.7689 21.2022V19.2702H17.7009V21.2022H15.7689Z" fill="#6C6259"/>
<path d="M20.277 17.9822H22.2091C22.5648 17.9822 22.8531 17.6937 22.8531 17.3381V15.4061C22.8531 15.0504 22.5648 14.7621 22.2091 14.7621H20.277C19.9213 14.7621 19.633 15.0504 19.633 15.4061V17.3381C19.633 17.6937 19.9213 17.9822 20.277 17.9822ZM20.277 15.4061H22.2091V17.3381H20.277V15.4061Z" fill="#6C6259"/>
<path d="M24.5467 21.6295L22.4435 23.9437L21.8033 23.2394C21.6836 23.108 21.4799 23.0982 21.3483 23.2179C21.2168 23.3376 21.2071 23.5413 21.3267 23.6729L22.2048 24.6389C22.2658 24.7062 22.3525 24.7446 22.4433 24.7446C22.5341 24.7446 22.6206 24.7062 22.6818 24.6389L25.0233 22.0629C25.1008 21.9778 25.1269 21.8578 25.0918 21.7482C25.0569 21.6385 24.9661 21.556 24.8536 21.5315C24.7412 21.507 24.6243 21.5443 24.5467 21.6295Z" fill="#6C6259"/>
</svg>
