<svg width="35" height="35" viewBox="0 0 35 35" fill="none" xmlns="http://www.w3.org/2000/svg">
<rect y="0.212402" width="34.0617" height="34.0617" rx="5.44945" fill="#EBDCB4"/>
<g clip-path="url(#clip0_166_6646)">
<path d="M19.0635 19.5641C18.7542 19.3475 18.3279 19.4228 18.1114 19.7321L14.921 24.2898C14.7045 24.5991 14.7797 25.0254 15.089 25.2419C15.3984 25.4584 15.8247 25.3832 16.0412 25.0739L19.2315 20.5162C19.448 20.2069 19.3728 19.7806 19.0635 19.5641Z" fill="#6C6259"/>
<path d="M18.4434 25.3656C18.821 25.3656 19.1271 25.0595 19.1271 24.6819C19.1271 24.3044 18.821 23.9983 18.4434 23.9983C18.0658 23.9983 17.7598 24.3044 17.7598 24.6819C17.7598 25.0595 18.0658 25.3656 18.4434 25.3656Z" fill="#6C6259"/>
<path d="M15.709 20.808C16.0866 20.808 16.3927 20.5019 16.3927 20.1243C16.3927 19.7468 16.0866 19.4407 15.709 19.4407C15.3315 19.4407 15.0254 19.7468 15.0254 20.1243C15.0254 20.5019 15.3315 20.808 15.709 20.808Z" fill="#6C6259"/>
<path d="M28.0602 8.04645H25.9637V7.27165C25.9637 6.14076 25.0437 5.2207 23.9128 5.2207C22.7819 5.2207 21.8618 6.14076 21.8618 7.27165V8.04645H19.1272V7.27165C19.1272 6.14076 18.2072 5.2207 17.0763 5.2207C15.9454 5.2207 15.0253 6.14076 15.0253 7.27165V8.04645H12.2907V7.27165C12.2907 6.14076 11.3707 5.2207 10.2398 5.2207C9.10891 5.2207 8.18886 6.14076 8.18886 7.27165V8.04645H6.09234C5.71478 8.04645 5.40869 8.35254 5.40869 8.7301V24.6819C5.40869 25.0594 5.71478 25.3655 6.09234 25.3655H11.6851C12.7335 27.2657 14.7569 28.5559 17.0763 28.5559C19.3956 28.5559 21.4191 27.2657 22.4674 25.3655H28.0602C28.4378 25.3655 28.7439 25.0594 28.7439 24.6819V8.7301C28.7439 8.35254 28.4378 8.04645 28.0602 8.04645ZM23.2291 7.27165C23.2291 6.89468 23.5358 6.588 23.9128 6.588C24.2897 6.588 24.5964 6.89468 24.5964 7.27165V8.04645H23.2291V7.27165ZM16.3926 7.27165C16.3926 6.89468 16.6993 6.588 17.0763 6.588C17.4532 6.588 17.7599 6.89468 17.7599 7.27165V8.04645H16.3926V7.27165ZM9.55616 7.27165C9.55616 6.89468 9.86284 6.588 10.2398 6.588C10.6168 6.588 10.9235 6.89468 10.9235 7.27165V8.04645H9.55616V7.27165ZM17.0763 27.1886C14.4375 27.1886 12.2907 25.0418 12.2907 22.4031C12.2907 19.7643 14.4375 17.6175 17.0763 17.6175C19.715 17.6175 21.8618 19.7643 21.8618 22.4031C21.8618 25.0418 19.715 27.1886 17.0763 27.1886ZM27.3766 23.9982H23.019C23.1557 23.4893 23.2291 22.9546 23.2291 22.4031C23.2291 19.0104 20.469 16.2502 17.0763 16.2502C13.6836 16.2502 10.9235 19.0104 10.9235 22.4031C10.9235 22.9546 10.9968 23.4893 11.1336 23.9982H6.77599V13.0599H27.3766V23.9982ZM27.3766 11.6926H6.77599V9.41374H10.9235V9.64163C10.9235 10.0192 11.2295 10.3253 11.6071 10.3253C11.9847 10.3253 12.2907 10.0192 12.2907 9.64163V9.41374H17.7599V9.64163C17.7599 10.0192 18.066 10.3253 18.4436 10.3253C18.8211 10.3253 19.1272 10.0192 19.1272 9.64163V9.41374H24.5964V9.64163C24.5964 10.0192 24.9025 10.3253 25.2801 10.3253C25.6576 10.3253 25.9637 10.0192 25.9637 9.64163V9.41374H27.3766V11.6926Z" fill="#6C6259"/>
</g>
<defs>
<clipPath id="clip0_166_6646">
<rect width="23.3352" height="23.3352" fill="white" transform="translate(5.40869 5.2207)"/>
</clipPath>
</defs>
</svg>
