<svg width="35" height="35" viewBox="0 0 35 35" fill="none" xmlns="http://www.w3.org/2000/svg">
<rect y="0.212402" width="34.0617" height="34.0617" rx="5.44945" fill="#EBDCB4"/>
<g clip-path="url(#clip0_166_6660)">
<path d="M24.9761 7.77187H23.3968C21.18 7.77187 18.9815 6.85908 17.365 5.26766C17.1019 5.00844 16.6751 5.00844 16.412 5.26766C14.7955 6.85908 12.5971 7.77187 10.3802 7.77187H8.80092C8.42866 7.77187 8.12695 8.06893 8.12695 8.43547V16.3986C8.12695 19.0549 8.97292 21.2987 10.7129 23.2582C12.1711 24.9003 14.0094 26.0436 15.4865 26.9623C15.8532 27.1902 16.1995 27.4055 16.5147 27.6126C16.6279 27.6869 16.7583 27.724 16.8885 27.724C17.0187 27.724 17.1491 27.6869 17.2624 27.6126C17.5676 27.4123 17.9075 27.2013 18.2673 26.978C21.2073 25.1535 25.6501 22.3962 25.6501 16.3986V8.43547C25.6501 8.06893 25.3484 7.77187 24.9761 7.77187ZM24.3021 16.3986C24.3021 21.664 20.3988 24.0863 17.5486 25.8551C17.3203 25.997 17.0997 26.1336 16.8887 26.2674C16.6702 26.1286 16.4424 25.9869 16.2063 25.8402C13.3655 24.0732 9.47489 21.6535 9.47489 16.3986V9.09907H10.3802C12.7394 9.09907 15.0767 8.21185 16.8885 6.64566C18.7003 8.21185 21.0376 9.09907 23.3968 9.09907H24.3021V16.3986Z" fill="#6C6259"/>
<path d="M16.8884 10.4263C13.5439 10.4263 10.8228 13.1054 10.8228 16.3986C10.8228 19.6917 13.5439 22.371 16.8884 22.371C20.233 22.371 22.9541 19.6917 22.9541 16.3986C22.9541 13.1054 20.2332 10.4263 16.8884 10.4263ZM16.8884 21.0438C14.287 21.0438 12.1707 18.9601 12.1707 16.3986C12.1707 13.8372 14.287 11.7535 16.8884 11.7535C19.4899 11.7535 21.6062 13.8372 21.6062 16.3986C21.6062 18.9601 19.4899 21.0438 16.8884 21.0438Z" fill="#6C6259"/>
<path d="M19.1077 14.6021L16.2144 17.4508L14.669 15.9293C14.4059 15.6701 13.9791 15.6701 13.716 15.9293C13.4527 16.1884 13.4527 16.6087 13.716 16.8677L15.7379 18.8585C15.8694 18.9881 16.0419 19.0529 16.2144 19.0529C16.3869 19.0529 16.5595 18.9881 16.6909 18.8585L20.0608 15.5405C20.324 15.2813 20.324 14.8612 20.0608 14.602C19.7977 14.3429 19.3708 14.3429 19.1077 14.6021Z" fill="#6C6259"/>
</g>
<defs>
<clipPath id="clip0_166_6660">
<rect width="18.4038" height="22.6508" fill="white" transform="translate(8.08203 5.07324)"/>
</clipPath>
</defs>
</svg>
