<svg width="34" height="34" viewBox="0 0 34 34" fill="none" xmlns="http://www.w3.org/2000/svg">
<rect width="33.6364" height="33.6364" rx="7.84848" fill="#EBDCB4"/>
<path d="M26.3333 20H20.6667V19.6667C20.6667 19.1144 20.219 18.6667 19.6667 18.6667H17.6667C17.4199 18.6675 17.1822 18.7602 17 18.9267C16.8178 18.7602 16.5801 18.6675 16.3333 18.6667H14.3333C13.781 18.6667 13.3333 19.1144 13.3333 19.6667V20H7.66667C7.29848 20 7 20.2985 7 20.6667V27.3333C7 27.7015 7.29848 28 7.66667 28H26.3333C26.7015 28 27 27.7015 27 27.3333V20.6667C27 20.2985 26.7015 20 26.3333 20ZM17.6667 19.3333H19.6667C19.8508 19.3333 20 19.4826 20 19.6667V20H17.3333V19.6667C17.3333 19.4826 17.4826 19.3333 17.6667 19.3333ZM14 19.6667C14 19.4826 14.1492 19.3333 14.3333 19.3333H16.3333C16.5174 19.3333 16.6667 19.4826 16.6667 19.6667V20H14V19.6667ZM13.6667 20.6667H20.6667V21.6667H13.3333V20.6667H13.6667ZM7.66667 22.3333H11.6667C11.8508 22.3333 12 22.1841 12 22C12 21.8159 11.8508 21.6667 11.6667 21.6667H7.66667V20.6667H12.6667V27.3333H7.66667V22.3333ZM13.3333 27.3333V22.3333H20.6667V27.3333H13.3333ZM21.3333 27.3333V20.6667H26.3333V21.6667H22.3333C22.1492 21.6667 22 21.8159 22 22C22 22.1841 22.1492 22.3333 22.3333 22.3333H26.3333V27.3333H21.3333Z" fill="#6C6259"/>
<path d="M19.3333 23H14.6667C14.2985 23 14 23.2985 14 23.6667V26C14 26.3682 14.2985 26.6667 14.6667 26.6667H19.3333C19.7015 26.6667 20 26.3682 20 26V23.6667C20 23.2985 19.7015 23 19.3333 23ZM14.6667 26V23.6667H19.3333V26H14.6667Z" fill="#6C6259"/>
<path d="M9.00001 23H8.66668C8.48258 23 8.33334 23.1492 8.33334 23.3333C8.33334 23.5174 8.48258 23.6667 8.66668 23.6667H9.00001C9.18411 23.6667 9.33334 23.5174 9.33334 23.3333C9.33334 23.1492 9.18411 23 9.00001 23Z" fill="#6C6259"/>
<path d="M22.6667 23H22.3333C22.1492 23 22 23.1492 22 23.3333C22 23.5174 22.1492 23.6667 22.3333 23.6667H22.6667C22.8508 23.6667 23 23.5174 23 23.3333C23 23.1492 22.8508 23 22.6667 23Z" fill="#6C6259"/>
<path d="M26.3333 8H7.66667C7.29848 8 7 8.29848 7 8.66667V16.3333C7 16.7015 7.29848 17 7.66667 17H12.6667C13.0349 17 13.3333 16.7015 13.3333 16.3333V15.6667H20.6667V16.3333C20.6667 16.7015 20.9651 17 21.3333 17H26.3333C26.7015 17 27 16.7015 27 16.3333V8.66667C27 8.29848 26.7015 8 26.3333 8ZM7.66667 8.66667H26.3333V9.33333H7.66667V8.66667ZM14.6667 10L14.6667 11.2547C14.6671 11.381 14.5956 11.4966 14.4823 11.5527L13.3333 12.1273V10H14.6667ZM13.3333 12.8727L14.7807 12.149C15.1203 11.9806 15.3347 11.6338 15.3333 11.2547V10H18.6667V11.2547C18.6653 11.6338 18.8797 11.9806 19.2193 12.149L20.6667 12.8727V13.6667H13.3333V12.8727ZM20.6667 12.1273L19.5177 11.5527C19.4044 11.4966 19.3329 11.381 19.3333 11.2547L19.3333 10H20.6667V12.1273ZM7.66667 16.3333V10H12.6667V16.3333H7.66667ZM13.3333 15V14.3333H20.6667V15H13.3333ZM21.3333 16.3333V10H26.3333V16.3333H21.3333Z" fill="#6C6259"/>
<path d="M9.00001 15H8.66668C8.48258 15 8.33334 15.1492 8.33334 15.3333C8.33334 15.5174 8.48258 15.6667 8.66668 15.6667H9.00001C9.18411 15.6667 9.33334 15.5174 9.33334 15.3333C9.33334 15.1492 9.18411 15 9.00001 15Z" fill="#6C6259"/>
<path d="M22.6667 15H22.3333C22.1492 15 22 15.1492 22 15.3333C22 15.5174 22.1492 15.6667 22.3333 15.6667H22.6667C22.8508 15.6667 23 15.5174 23 15.3333C23 15.1492 22.8508 15 22.6667 15Z" fill="#6C6259"/>
</svg>
