<svg width="41" height="41" viewBox="0 0 41 41" fill="none" xmlns="http://www.w3.org/2000/svg">
<circle cx="20.0353" cy="20.0353" r="20.0353" fill="#84818E"/>
<path d="M11.0159 23.975C11.0159 23.625 11.3076 23.3916 11.5993 23.3916C11.9493 23.3916 12.1826 23.6833 12.1826 23.975L12.066 28.0583L17.316 22.8083C17.5493 22.575 17.8993 22.575 18.1326 22.8083C18.366 23.0416 18.366 23.3916 18.1326 23.625L12.8826 28.875L16.966 28.7583C17.316 28.7583 17.5493 28.9916 17.5493 29.3416C17.5493 29.6916 17.316 29.925 16.966 29.925L11.6576 30.0416C11.4243 30.0416 11.2493 29.925 11.0743 29.8083C10.8993 29.6333 10.841 29.4 10.841 29.225L11.0159 23.975Z" fill="white"/>
<path d="M27.1163 13.0666L23.0329 13.1832C22.6829 13.1832 22.4496 12.9499 22.4496 12.5999C22.4496 12.2499 22.6829 12.0166 23.0329 12.0166L28.2829 11.8999C28.5163 11.8999 28.7496 11.9582 28.8663 12.1332C28.9829 12.3082 29.0996 12.5416 29.0996 12.7166L28.9829 18.0249C28.9829 18.3166 28.6913 18.6082 28.3996 18.6082C28.0496 18.6082 27.8163 18.3166 27.8163 18.0249L27.9329 13.9416L22.6829 19.1916C22.5663 19.3082 22.3913 19.3666 22.2746 19.3666C22.1579 19.3666 21.9829 19.3082 21.8663 19.1916C21.6329 18.9582 21.6329 18.6082 21.8663 18.3749L27.1163 13.0666Z" fill="white"/>
</svg>
