<svg width="43" height="44" viewBox="0 0 43 44" fill="none" xmlns="http://www.w3.org/2000/svg">
<ellipse cx="21.5" cy="21.5761" rx="21.5" ry="21.5761" fill="white"/>
<g clip-path="url(#clip0_379_10379)">
<path d="M25.5192 13.3594C24.7672 13.3602 24.0232 13.5152 23.3334 13.8147C22.6435 14.1141 22.0223 14.5517 21.508 15.1005C20.7544 14.2962 19.7765 13.7371 18.7011 13.4956C17.6257 13.2542 16.5025 13.3416 15.4774 13.7465C14.4523 14.1514 13.5726 14.8551 12.9525 15.7663C12.3324 16.6775 12.0005 17.754 12 18.8562C12 24.3293 20.8276 29.7013 21.2109 29.9123C21.3033 29.9678 21.4091 29.9971 21.5169 29.9971C21.6248 29.9971 21.7306 29.9678 21.823 29.9123C22.1884 29.7013 31.0161 24.3293 31.0161 18.8562C31.0145 17.3988 30.4348 16.0016 29.4043 14.9711C28.3738 13.9406 26.9766 13.3609 25.5192 13.3594ZM21.508 28.703C19.9719 27.7224 13.1885 23.1408 13.1885 18.8562C13.1893 17.941 13.4814 17.0499 14.0226 16.3119C14.5639 15.5739 15.326 15.0275 16.1986 14.7517C17.0713 14.4759 18.009 14.4852 18.876 14.7782C19.743 15.0712 20.4942 15.6326 21.0207 16.3811C21.0756 16.459 21.1484 16.5225 21.2329 16.5664C21.3174 16.6103 21.4113 16.6331 21.5065 16.6331C21.6018 16.6331 21.6956 16.6103 21.7802 16.5664C21.8647 16.5225 21.9375 16.459 21.9923 16.3811C22.5184 15.6313 23.2698 15.0687 24.1373 14.7749C25.0049 14.4811 25.9435 14.4714 26.817 14.7473C27.6904 15.0232 28.4532 15.5703 28.9945 16.3092C29.5359 17.0481 29.8277 17.9402 29.8275 18.8562C29.8275 23.1378 23.0442 27.7195 21.508 28.703Z" fill="black"/>
</g>
<defs>
<clipPath id="clip0_379_10379">
<rect width="19.0161" height="19.0834" fill="white" transform="translate(12 13)"/>
</clipPath>
</defs>
</svg>
