<svg width="21" height="20" viewBox="0 0 21 20" fill="none" xmlns="http://www.w3.org/2000/svg">
<rect width="19.3579" height="19.3579" rx="4.28892" transform="matrix(-1 0 0 1 20.2129 0.558594)" fill="#6F9DC0"/>
<g clip-path="url(#clip0_551_13903)">
<path d="M14.9264 10.6782L8.98097 4.73237C8.83249 4.58412 8.59204 4.58389 8.44288 4.73237C8.29463 4.88108 8.29463 5.12221 8.44288 5.27069L14.3887 11.2163C15.2743 12.1015 15.2743 13.5423 14.3887 14.4275C13.5036 15.3127 12.0631 15.3127 11.1775 14.4273L5.58629 8.83628C4.98597 8.23595 4.98597 7.25836 5.58629 6.65826C6.18616 6.05794 7.16398 6.05817 7.76431 6.65849L12.5964 11.4906C12.8961 11.7908 12.8966 12.2783 12.596 12.5787C12.297 12.8784 11.8094 12.8782 11.5093 12.578L7.27974 8.34943C7.13103 8.20118 6.89058 8.20095 6.74165 8.34966C6.59317 8.49814 6.59317 8.73905 6.74165 8.88775L10.9707 13.1168C11.5671 13.7135 12.5386 13.7142 13.135 13.1177C13.7317 12.5204 13.7317 11.5492 13.135 10.9521L8.30309 6.11971C7.40557 5.22219 5.94502 5.22242 5.04774 6.11971C4.15068 7.01722 4.15068 8.47755 5.04819 9.37483L10.6387 14.9658C11.8213 16.1482 13.7447 16.1484 14.9273 14.9661C16.1096 13.7837 16.1092 11.8608 14.9264 10.6782Z" fill="white"/>
</g>
<defs>
<clipPath id="clip0_551_13903">
<rect width="11.4389" height="11.4389" fill="white" transform="translate(4.375 4.51807)"/>
</clipPath>
</defs>
</svg>
