<svg width="14" height="8" viewBox="0 0 14 8" fill="none" xmlns="http://www.w3.org/2000/svg">
<path d="M1.19354 1.19427C1.13105 1.25624 1.08145 1.32998 1.04761 1.41122C1.01376 1.49246 0.996337 1.57959 0.996337 1.6676C0.996337 1.75561 1.01376 1.84275 1.04761 1.92399C1.08145 2.00523 1.13105 2.07896 1.19354 2.14094L6.52687 7.47427C6.58916 7.53606 6.66304 7.58494 6.74426 7.61812C6.82549 7.65129 6.91246 7.66811 7.0002 7.6676C7.08794 7.66811 7.17491 7.65129 7.25614 7.61812C7.33736 7.58494 7.41124 7.53606 7.47354 7.47427L12.8069 2.14094C12.869 2.07878 12.9183 2.00498 12.952 1.92377C12.9856 1.84255 13.0029 1.75551 13.0029 1.6676C13.0029 1.5797 12.9856 1.49265 12.952 1.41144C12.9183 1.33022 12.869 1.25643 12.8069 1.19427C12.6813 1.06873 12.5111 0.998208 12.3335 0.998208C12.156 0.998208 11.9857 1.06873 11.8602 1.19427L6.99354 6.06094L2.1402 1.19427C2.07823 1.13178 2.00449 1.08219 1.92325 1.04834C1.84201 1.0145 1.75488 0.99707 1.66687 0.99707C1.57886 0.99707 1.49172 1.0145 1.41049 1.04834C1.32925 1.08219 1.25551 1.13178 1.19354 1.19427Z" fill="white"/>
</svg>
