<svg width="38" height="38" viewBox="0 0 38 38" fill="none" xmlns="http://www.w3.org/2000/svg">
<g filter="url(#filter0_i_166_8383)">
<circle cx="19" cy="19" r="19" fill="white"/>
</g>
<circle cx="19" cy="19" r="18.4732" stroke="#E8E8E8" stroke-width="1.05351"/>
<g clip-path="url(#clip0_166_8383)">
<path d="M25.9862 16.116C25.9534 15.3722 25.8331 14.8608 25.6608 14.4176C25.4831 13.9472 25.2096 13.5261 24.8512 13.176C24.5012 12.8205 24.0772 12.5442 23.6123 12.3692C23.1666 12.1969 22.6579 12.0766 21.914 12.0438C21.1646 12.0082 20.9267 12 19.0259 12C17.1251 12 16.8872 12.0082 16.1406 12.041C15.3967 12.0738 14.8853 12.1942 14.4423 12.3664C13.9718 12.5442 13.5506 12.8177 13.2005 13.176C12.845 13.5261 12.5688 13.95 12.3937 14.4149C12.2214 14.8608 12.1011 15.3694 12.0683 16.1133C12.0328 16.8627 12.0245 17.1006 12.0245 19.0014C12.0245 20.9021 12.0328 21.14 12.0656 21.8867C12.0984 22.6306 12.2188 23.142 12.3911 23.5851C12.5688 24.0555 12.845 24.4766 13.2005 24.8267C13.5506 25.1823 13.9745 25.4585 14.4395 25.6335C14.8853 25.8058 15.3939 25.9261 16.1379 25.9589C16.8844 25.9918 17.1225 26 19.0232 26C20.924 26 21.1619 25.9918 21.9086 25.9589C22.6524 25.9261 23.1638 25.8058 23.6069 25.6335C24.5477 25.2698 25.2916 24.5259 25.6554 23.5851C25.8276 23.1393 25.948 22.6306 25.9808 21.8867C26.0136 21.14 26.0218 20.9021 26.0218 19.0014C26.0218 17.1006 26.019 16.8627 25.9862 16.116ZM24.7255 21.832C24.6954 22.5157 24.5805 22.8849 24.4848 23.1311C24.2496 23.741 23.7655 24.225 23.1556 24.4603C22.9095 24.556 22.5376 24.6709 21.8565 24.7009C21.1181 24.7338 20.8966 24.7419 19.0287 24.7419C17.1607 24.7419 16.9365 24.7338 16.2007 24.7009C15.517 24.6709 15.1478 24.556 14.9016 24.4603C14.5981 24.3481 14.3219 24.1703 14.0976 23.9379C13.8651 23.7109 13.6874 23.4374 13.5752 23.1339C13.4795 22.8877 13.3646 22.5157 13.3346 21.8348C13.3017 21.0964 13.2936 20.8748 13.2936 19.0068C13.2936 17.1389 13.3017 16.9146 13.3346 16.179C13.3646 15.4952 13.4795 15.126 13.5752 14.8799C13.6874 14.5763 13.8651 14.3001 14.1004 14.0758C14.3273 13.8433 14.6008 13.6655 14.9044 13.5534C15.1506 13.4577 15.5225 13.3429 16.2035 13.3128C16.9419 13.28 17.1635 13.2717 19.0313 13.2717C20.9021 13.2717 21.1235 13.28 21.8593 13.3128C22.543 13.3429 22.9122 13.4577 23.1584 13.5534C23.4619 13.6655 23.7382 13.8433 23.9624 14.0758C24.1949 14.3028 24.3726 14.5763 24.4848 14.8799C24.5805 15.126 24.6954 15.4979 24.7255 16.179C24.7583 16.9174 24.7665 17.1389 24.7665 19.0068C24.7665 20.8748 24.7583 21.0936 24.7255 21.832Z" fill="#37353D"/>
<path d="M19.0258 15.4043C17.0404 15.4043 15.4294 17.0151 15.4294 19.0007C15.4294 20.9863 17.0404 22.5971 19.0258 22.5971C21.0114 22.5971 22.6222 20.9863 22.6222 19.0007C22.6222 17.0151 21.0114 15.4043 19.0258 15.4043ZM19.0258 21.3336C17.7378 21.3336 16.6929 20.2889 16.6929 19.0007C16.6929 17.7125 17.7378 16.6678 19.0258 16.6678C20.314 16.6678 21.3587 17.7125 21.3587 19.0007C21.3587 20.2889 20.314 21.3336 19.0258 21.3336Z" fill="#37353D"/>
<path d="M23.6042 15.2634C23.6042 15.7271 23.2283 16.103 22.7645 16.103C22.3009 16.103 21.9249 15.7271 21.9249 15.2634C21.9249 14.7997 22.3009 14.4238 22.7645 14.4238C23.2283 14.4238 23.6042 14.7997 23.6042 15.2634Z" fill="#37353D"/>
</g>
<defs>
<filter id="filter0_i_166_8383" x="0" y="-8" width="39" height="46" filterUnits="userSpaceOnUse" color-interpolation-filters="sRGB">
<feFlood flood-opacity="0" result="BackgroundImageFix"/>
<feBlend mode="normal" in="SourceGraphic" in2="BackgroundImageFix" result="shape"/>
<feColorMatrix in="SourceAlpha" type="matrix" values="0 0 0 0 0 0 0 0 0 0 0 0 0 0 0 0 0 0 127 0" result="hardAlpha"/>
<feOffset dx="1" dy="-8"/>
<feGaussianBlur stdDeviation="10.5"/>
<feComposite in2="hardAlpha" operator="arithmetic" k2="-1" k3="1"/>
<feColorMatrix type="matrix" values="0 0 0 0 0.858333 0 0 0 0 0.858333 0 0 0 0 0.858333 0 0 0 0.25 0"/>
<feBlend mode="normal" in2="shape" result="effect1_innerShadow_166_8383"/>
</filter>
<clipPath id="clip0_166_8383">
<rect width="14" height="14" fill="white" transform="translate(12 12)"/>
</clipPath>
</defs>
</svg>
