<svg width="38" height="38" viewBox="0 0 38 38" fill="none" xmlns="http://www.w3.org/2000/svg">
<g filter="url(#filter0_i_166_8378)">
<circle cx="19" cy="19" r="19" fill="white"/>
</g>
<circle cx="19" cy="19" r="18.4732" stroke="#E8E8E8" stroke-width="1.05351"/>
<g clip-path="url(#clip0_166_8378)">
<path d="M26.5551 14.6964C26.3721 13.9735 25.8356 13.4036 25.1553 13.209C23.9125 12.8477 18.941 12.8477 18.941 12.8477C18.941 12.8477 13.9697 12.8477 12.7269 13.1953C12.0596 13.3897 11.5101 13.9736 11.3271 14.6964C11 16.0169 11 18.7552 11 18.7552C11 18.7552 11 21.5074 11.3271 22.814C11.5103 23.5369 12.0465 24.1068 12.727 24.3014C13.9828 24.6628 18.9412 24.6628 18.9412 24.6628C18.9412 24.6628 23.9125 24.6628 25.1553 24.3152C25.8357 24.1207 26.3721 23.5508 26.5553 22.8279C26.8823 21.5074 26.8823 18.7691 26.8823 18.7691C26.8823 18.7691 26.8953 16.0169 26.5551 14.6964ZM17.3582 21.2851V16.2254L21.4922 18.7552L17.3582 21.2851Z" fill="#37353D"/>
</g>
<defs>
<filter id="filter0_i_166_8378" x="0" y="-8" width="39" height="46" filterUnits="userSpaceOnUse" color-interpolation-filters="sRGB">
<feFlood flood-opacity="0" result="BackgroundImageFix"/>
<feBlend mode="normal" in="SourceGraphic" in2="BackgroundImageFix" result="shape"/>
<feColorMatrix in="SourceAlpha" type="matrix" values="0 0 0 0 0 0 0 0 0 0 0 0 0 0 0 0 0 0 127 0" result="hardAlpha"/>
<feOffset dx="1" dy="-8"/>
<feGaussianBlur stdDeviation="10.5"/>
<feComposite in2="hardAlpha" operator="arithmetic" k2="-1" k3="1"/>
<feColorMatrix type="matrix" values="0 0 0 0 0.858333 0 0 0 0 0.858333 0 0 0 0 0.858333 0 0 0 0.25 0"/>
<feBlend mode="normal" in2="shape" result="effect1_innerShadow_166_8378"/>
</filter>
<clipPath id="clip0_166_8378">
<rect width="16" height="12" fill="white" transform="translate(11 13)"/>
</clipPath>
</defs>
</svg>
