<svg width="38" height="38" viewBox="0 0 38 38" fill="none" xmlns="http://www.w3.org/2000/svg">
<g filter="url(#filter0_i_166_8372)">
<circle cx="19" cy="19" r="19" fill="white"/>
</g>
<circle cx="19" cy="19" r="18.4732" stroke="#E8E8E8" stroke-width="1.05351"/>
<g clip-path="url(#clip0_166_8372)">
<path d="M26.9099 23.4099C26.8893 23.3655 26.8701 23.3287 26.8523 23.2992C26.5573 22.768 25.9937 22.116 25.1617 21.343L25.1441 21.3253L25.1353 21.3166L25.1264 21.3077H25.1175C24.7399 20.9477 24.5008 20.7057 24.4006 20.5818C24.2174 20.3458 24.1764 20.1068 24.2765 19.8647C24.3473 19.6818 24.613 19.2955 25.0731 18.7054C25.3152 18.3926 25.5068 18.1419 25.6484 17.953C26.6693 16.5958 27.1119 15.7285 26.9761 15.3508L26.9234 15.2625C26.888 15.2094 26.7965 15.1608 26.6492 15.1165C26.5015 15.0722 26.3127 15.0649 26.0825 15.0944L23.5334 15.112C23.4921 15.0974 23.4332 15.0987 23.3563 15.1165C23.2796 15.1342 23.2412 15.1431 23.2412 15.1431L23.1969 15.1653L23.1617 15.1919C23.1321 15.2095 23.0997 15.2405 23.0642 15.2847C23.029 15.3289 22.9995 15.3806 22.976 15.4396C22.6984 16.1536 22.3829 16.8175 22.0288 17.4311C21.8104 17.797 21.6099 18.1141 21.4268 18.3826C21.2439 18.651 21.0905 18.8488 20.9666 18.9756C20.8426 19.1025 20.7307 19.2041 20.6302 19.2809C20.5299 19.3577 20.4533 19.3902 20.4002 19.3783C20.347 19.3664 20.297 19.3547 20.2496 19.3429C20.167 19.2897 20.1006 19.2175 20.0505 19.126C20.0003 19.0346 19.9664 18.9195 19.9487 18.7808C19.9311 18.642 19.9207 18.5227 19.9177 18.4223C19.9149 18.3221 19.9162 18.1803 19.9222 17.9974C19.9283 17.8144 19.9311 17.6906 19.9311 17.6257C19.9311 17.4014 19.9355 17.158 19.9442 16.8954C19.9532 16.6328 19.9604 16.4248 19.9664 16.2715C19.9725 16.1181 19.9752 15.9558 19.9752 15.7846C19.9752 15.6135 19.9648 15.4793 19.9442 15.3819C19.9239 15.2846 19.8927 15.1902 19.8515 15.0986C19.8102 15.0072 19.7496 14.9364 19.6701 14.8862C19.5905 14.836 19.4914 14.7962 19.3736 14.7667C19.0608 14.6959 18.6625 14.6576 18.1786 14.6517C17.0811 14.6399 16.3759 14.7107 16.0631 14.8642C15.9392 14.929 15.8271 15.0176 15.7268 15.1296C15.6206 15.2595 15.6058 15.3303 15.6825 15.342C16.0366 15.395 16.2873 15.5219 16.4348 15.7225L16.488 15.8288C16.5293 15.9055 16.5706 16.0413 16.6119 16.236C16.6532 16.4307 16.6798 16.6461 16.6915 16.882C16.721 17.3128 16.721 17.6816 16.6915 17.9884C16.662 18.2953 16.6341 18.5343 16.6075 18.7054C16.5808 18.8765 16.541 19.0152 16.488 19.1214C16.4348 19.2276 16.3994 19.2925 16.3817 19.3161C16.364 19.3396 16.3492 19.3545 16.3375 19.3603C16.2608 19.3897 16.181 19.4047 16.0985 19.4047C16.0158 19.4047 15.9155 19.3633 15.7976 19.2807C15.6796 19.198 15.5572 19.0845 15.4303 18.9399C15.3034 18.7953 15.1603 18.5932 15.0009 18.3336C14.8417 18.074 14.6764 17.7671 14.5053 17.4131L14.3637 17.1563C14.2752 16.9912 14.1543 16.7506 14.0009 16.435C13.8473 16.1193 13.7116 15.8138 13.5937 15.5188C13.5465 15.3949 13.4757 15.3005 13.3813 15.2356L13.337 15.209C13.3075 15.1854 13.2603 15.1604 13.1954 15.1338C13.1305 15.1071 13.0627 15.088 12.9918 15.0763L10.5666 15.0939C10.3188 15.0939 10.1506 15.15 10.0621 15.2622L10.0266 15.3152C10.0089 15.3448 10 15.3919 10 15.4569C10 15.5218 10.0177 15.6015 10.0531 15.6958C10.4072 16.5279 10.7922 17.3304 11.2082 18.1034C11.6241 18.8764 11.9856 19.499 12.2924 19.9708C12.5992 20.4429 12.912 20.8885 13.2306 21.3074C13.5493 21.7263 13.7602 21.9949 13.8634 22.1128C13.9668 22.231 14.0479 22.3193 14.1069 22.3783L14.3282 22.5907C14.4698 22.7324 14.6778 22.902 14.9522 23.0997C15.2267 23.2974 15.5305 23.4921 15.8639 23.684C16.1974 23.8757 16.5853 24.032 17.0279 24.153C17.4704 24.274 17.9012 24.3226 18.3202 24.2992H19.3381C19.5445 24.2813 19.7009 24.2164 19.8072 24.1044L19.8424 24.06C19.8661 24.0248 19.8883 23.9701 19.9087 23.8965C19.9295 23.8227 19.9397 23.7415 19.9397 23.6531C19.9337 23.3994 19.953 23.1707 19.9972 22.9672C20.0413 22.7637 20.0916 22.6103 20.1478 22.5069C20.204 22.4037 20.2674 22.3166 20.338 22.246C20.4088 22.1752 20.4592 22.1323 20.4888 22.1176C20.5181 22.1027 20.5416 22.0926 20.5593 22.0866C20.7009 22.0394 20.8676 22.0851 21.0596 22.2239C21.2514 22.3626 21.4313 22.5338 21.5995 22.7373C21.7677 22.941 21.9698 23.1695 22.2058 23.4232C22.4419 23.6769 22.6484 23.8656 22.8253 23.9897L23.0023 24.0959C23.1205 24.1668 23.2739 24.2317 23.4628 24.2907C23.6513 24.3496 23.8165 24.3644 23.9583 24.3349L26.2241 24.2996C26.4482 24.2996 26.6226 24.2625 26.7463 24.1888C26.8703 24.1151 26.9439 24.0338 26.9676 23.9454C26.9913 23.857 26.9926 23.7566 26.9721 23.6444C26.9511 23.5324 26.9305 23.4541 26.9099 23.4099Z" fill="#37353D"/>
</g>
<defs>
<filter id="filter0_i_166_8372" x="0" y="-8" width="39" height="46" filterUnits="userSpaceOnUse" color-interpolation-filters="sRGB">
<feFlood flood-opacity="0" result="BackgroundImageFix"/>
<feBlend mode="normal" in="SourceGraphic" in2="BackgroundImageFix" result="shape"/>
<feColorMatrix in="SourceAlpha" type="matrix" values="0 0 0 0 0 0 0 0 0 0 0 0 0 0 0 0 0 0 127 0" result="hardAlpha"/>
<feOffset dx="1" dy="-8"/>
<feGaussianBlur stdDeviation="10.5"/>
<feComposite in2="hardAlpha" operator="arithmetic" k2="-1" k3="1"/>
<feColorMatrix type="matrix" values="0 0 0 0 0.858333 0 0 0 0 0.858333 0 0 0 0 0.858333 0 0 0 0.25 0"/>
<feBlend mode="normal" in2="shape" result="effect1_innerShadow_166_8372"/>
</filter>
<clipPath id="clip0_166_8372">
<rect width="17" height="17" fill="white" transform="translate(10 11)"/>
</clipPath>
</defs>
</svg>
