<svg width="45" height="45" viewBox="0 0 45 45" fill="none" xmlns="http://www.w3.org/2000/svg">
<g filter="url(#filter0_i_166_8199)">
<circle cx="22.4998" cy="22.4998" r="22.4998" fill="#565656"/>
</g>
<path d="M26.6138 15H19.3862C16.9676 15 15 16.9676 15 19.3862V26.6138C15 29.0324 16.9676 31 19.3862 31H26.6138C29.0324 31 31 29.0324 31 26.6138V19.3862C31 16.9676 29.0324 15 26.6138 15ZM30.0551 26.6138C30.0551 28.5114 28.5114 30.0551 26.6138 30.0551H19.3862C17.4886 30.0551 15.9449 28.5114 15.9449 26.6138V19.3862C15.9449 17.4886 17.4886 15.9449 19.3862 15.9449H26.6138C28.5114 15.9449 30.0551 17.4886 30.0551 19.3862V26.6138Z" fill="white"/>
<path d="M23 18.6113C20.5802 18.6113 18.6116 20.58 18.6116 22.9998C18.6116 25.4196 20.5802 27.3883 23 27.3883C25.4199 27.3883 27.3885 25.4196 27.3885 22.9998C27.3885 20.58 25.4199 18.6113 23 18.6113ZM23 26.4434C21.1012 26.4434 19.5564 24.8986 19.5564 22.9998C19.5564 21.101 21.1012 19.5561 23 19.5561C24.8989 19.5561 26.4437 21.101 26.4437 22.9998C26.4437 24.8986 24.8989 26.4434 23 26.4434Z" fill="white"/>
<path d="M27.6508 17.0156C26.9156 17.0156 26.3175 17.6138 26.3175 18.349C26.3175 19.0842 26.9156 19.6823 27.6508 19.6823C28.386 19.6823 28.9841 19.0841 28.9841 18.3489C28.9841 17.6138 28.386 17.0156 27.6508 17.0156ZM27.6508 18.7374C27.4367 18.7374 27.2624 18.5631 27.2624 18.3489C27.2624 18.1348 27.4367 17.9605 27.6508 17.9605C27.865 17.9605 28.0393 18.1348 28.0393 18.3489C28.0393 18.5631 27.865 18.7374 27.6508 18.7374Z" fill="white"/>
<defs>
<filter id="filter0_i_166_8199" x="0" y="0" width="44.9995" height="50.1428" filterUnits="userSpaceOnUse" color-interpolation-filters="sRGB">
<feFlood flood-opacity="0" result="BackgroundImageFix"/>
<feBlend mode="normal" in="SourceGraphic" in2="BackgroundImageFix" result="shape"/>
<feColorMatrix in="SourceAlpha" type="matrix" values="0 0 0 0 0 0 0 0 0 0 0 0 0 0 0 0 0 0 127 0" result="hardAlpha"/>
<feOffset dy="5.1428"/>
<feGaussianBlur stdDeviation="2.5714"/>
<feComposite in2="hardAlpha" operator="arithmetic" k2="-1" k3="1"/>
<feColorMatrix type="matrix" values="0 0 0 0 1 0 0 0 0 1 0 0 0 0 1 0 0 0 0.25 0"/>
<feBlend mode="normal" in2="shape" result="effect1_innerShadow_166_8199"/>
</filter>
</defs>
</svg>
