<svg width="109" height="72" viewBox="0 0 109 72" fill="none" xmlns="http://www.w3.org/2000/svg">
<g clip-path="url(#clip0_546_6391)">
<path d="M95.9939 39.493L108.099 24.7863L90.689 32.533L80.4562 15.293L82.7581 35.4796L68.1399 38.993V41.073L82.8904 43.913L81.3757 63.993L90.9867 46.4196L109.422 54.3063L95.9939 39.493Z" fill="url(#paint0_linear_546_6391)"/>
<path d="M102.781 49.573L90.2261 44.1996L83.7107 56.113L84.6235 44.013L84.736 42.4863L71.5796 39.9596L84.6566 36.8196L83.0956 23.1396L89.988 34.753L102.066 29.3796L93.6987 39.5463L94.6843 40.633L102.781 49.573Z" fill="url(#paint1_linear_546_6391)"/>
<path opacity="0.13" d="M102.781 49.5728L90.2261 44.1995L83.7107 56.1128L84.6235 44.0128C84.6235 44.0128 89.5183 44.3195 94.6843 40.6328L102.781 49.5728Z" fill="#4C3409"/>
<path d="M70.164 38.5059L70.078 41.4459L63.6486 40.2125L63.3179 40.1459L66.2415 39.4459L70.164 38.5059Z" fill="url(#paint2_linear_546_6391)"/>
<path d="M63.318 40.1463L-10.4214 40.213V39.4463H66.2416L63.318 40.1463Z" fill="url(#paint3_linear_546_6391)"/>
<path d="M5.81727 54.2405C5.81727 56.1205 5.77758 57.8605 5.83049 59.6005C5.85695 60.6272 5.9231 60.6205 6.94175 60.8339C7.05419 60.8539 7.15341 60.9339 7.25924 60.9872C7.24602 61.0472 7.2394 61.1005 7.22617 61.1605C5.79081 61.1605 4.35544 61.1605 2.90023 61.1605C2.92669 61.0339 2.92669 60.9872 2.93331 60.9872C4.16362 60.7939 4.08425 59.8072 4.10409 58.9405C4.15039 57.1139 4.15039 55.2872 4.15039 53.4605C4.15039 52.0672 4.13716 50.6805 4.11732 49.2872C4.09747 48.0472 4.08424 48.0539 2.89362 47.6672C2.80102 47.6405 2.72826 47.5605 2.66211 47.3672C4.07763 47.3672 5.48654 47.3672 6.9682 47.3672C6.90206 47.4939 6.86898 47.6005 6.8293 47.6072C5.83711 47.7539 5.71805 48.4672 5.72466 49.2805C5.73128 50.6672 5.72466 52.0472 5.72466 53.5339C5.94294 53.3539 6.10831 53.2339 6.25383 53.0872C7.62305 51.6605 8.99888 50.2272 10.3615 48.7872C10.7253 48.4005 11.1023 48.0005 10.4012 47.3672C11.7439 47.3672 12.9081 47.3672 14.2707 47.3672C14.0326 47.5472 13.9664 47.6405 13.8871 47.6539C12.8221 47.8472 12.0284 48.4872 11.3008 49.2339C9.93815 50.6272 8.56893 52.0272 7.1468 53.4805C7.97362 54.3472 8.79383 55.2472 9.64711 56.1072C10.7121 57.1872 11.7968 58.2539 12.8816 59.3205C13.6886 60.1139 14.575 60.7605 15.759 60.8472C15.8384 60.8539 15.9111 60.9539 16.136 61.1139C14.1186 61.3339 12.3392 61.3872 10.9237 59.8205C9.30315 58.0272 7.63628 56.2739 5.99586 54.5072C5.92971 54.4539 5.89664 54.3739 5.81727 54.2405Z" fill="black"/>
<path d="M39.4457 60.5875C38.9695 60.3809 38.5792 60.0542 38.2749 59.6209L34.5509 53.7142L37.9111 48.7209C38.1426 48.4009 38.4271 48.1275 38.7644 47.9075C39.1017 47.6875 39.4655 47.5809 39.8492 47.5809H40.1204V47.3875H35.7945V47.5809H36.026C36.3104 47.5809 36.5287 47.7142 36.6808 47.9875C36.7602 48.1142 36.7999 48.2475 36.7999 48.3875C36.7999 48.5209 36.7602 48.6542 36.6808 48.7875L34.0614 52.9342L31.409 48.7542C31.3495 48.6275 31.3164 48.4942 31.3164 48.3675C31.3164 48.2409 31.3627 48.1009 31.4487 47.9609C31.614 47.7009 31.8323 47.5742 32.1035 47.5742H32.335V47.3809H28.3067H25.2773C25.2707 47.4342 25.264 47.4875 25.2574 47.5409C25.5749 47.6542 25.8924 47.7675 26.3224 47.9209C25.264 51.3342 23.908 54.5875 22.5984 58.0609C21.1365 54.9075 19.7475 51.9609 18.4047 48.9875C17.988 48.0609 18.0608 48.0009 19.0199 47.6209C19.0596 47.6009 19.086 47.5475 19.2249 47.3875H14.4558C14.5484 47.5875 14.6609 47.6875 14.7799 47.6942C15.6597 47.7409 16.0962 48.3342 16.4534 49.0475C18.0872 52.3342 19.6813 55.6409 21.4011 58.8809C21.9237 59.8742 21.6525 60.5742 21.1299 61.3275C20.5214 62.1942 19.6086 62.0875 19.1985 61.1009C19.086 60.8275 19.0728 60.5209 19 60.2342C18.967 60.1075 18.8876 59.9875 18.8347 59.8675C18.7553 59.8742 18.6759 59.8809 18.5965 59.8942C18.5701 60.7209 18.4973 61.5409 18.537 62.3609C18.5502 62.5742 18.8677 62.8475 19.1125 62.9475C20.1047 63.3675 21.0506 63.1275 21.6988 62.2142C22.1221 61.6275 22.4595 60.9542 22.7373 60.2809C23.8287 57.6409 24.8804 54.9875 25.9586 52.3409C26.4679 51.0809 26.9574 49.8075 27.5527 48.5875C27.7313 48.2209 28.0091 47.8675 28.4324 47.8142C28.8359 47.7675 29.2328 47.9942 29.5172 48.2675C30.0993 48.8209 30.4962 49.6675 30.9195 50.3409C31.3825 51.0809 31.8455 51.8209 32.3086 52.5542C32.5335 52.9142 32.7584 53.2742 32.9833 53.6342C33.0031 53.6675 33.2743 54.0409 33.2545 54.0742L29.5834 59.5875C29.3519 59.9075 29.0608 60.1809 28.7169 60.4009C28.3729 60.6209 28.0025 60.7275 27.6188 60.7275H27.3476V60.9209H31.7066V60.7275H31.4553C31.1841 60.7275 30.9658 60.5875 30.8004 60.3209C30.7145 60.1942 30.6682 60.0609 30.6682 59.9275C30.6682 59.7875 30.7078 59.6609 30.7872 59.5275L33.7439 54.8409L36.7007 59.5475C36.7668 59.6742 36.7999 59.8075 36.7999 59.9342C36.7999 60.0609 36.7536 60.2009 36.661 60.3409C36.5088 60.6009 36.2906 60.7275 36.0061 60.7275H35.7746V60.9209H40.4644V60.7275H40.1932C39.955 60.7409 39.6971 60.6875 39.4457 60.5875Z" fill="black"/>
<path d="M51.5902 47.5742H51.8415C52.0598 47.5742 52.2649 47.6275 52.4567 47.7275C52.8536 47.9609 53.0586 48.3075 53.0719 48.7742V53.9409H45.2137V48.7742C45.227 48.4409 45.3526 48.1542 45.5908 47.9209C45.8289 47.6875 46.1133 47.5742 46.444 47.5742H46.6954V47.3809H42.4885V47.5742H42.7399C43.0706 47.5742 43.3617 47.6875 43.5932 47.9209C43.8313 48.1542 43.957 48.4409 43.9702 48.7742V59.5209C43.957 59.8542 43.8313 60.1409 43.5932 60.3809C43.355 60.6209 43.0706 60.7409 42.7399 60.7409H42.4885V60.9342H46.6954V60.7409H46.444C46.1133 60.7409 45.8223 60.6209 45.5775 60.3809C45.3328 60.1409 45.2137 59.8542 45.2137 59.5209V54.5275H53.0719V59.5409C53.0586 59.8742 52.933 60.1609 52.6948 60.3942C52.4567 60.6275 52.1723 60.7409 51.8415 60.7409H51.5902V60.9342H55.7971V60.7409H55.5457C55.215 60.7409 54.9306 60.6209 54.6924 60.3809C54.4543 60.1409 54.3286 59.8542 54.322 59.5209V48.7942C54.3352 48.4609 54.4609 48.1742 54.6924 47.9342C54.9306 47.6942 55.215 47.5742 55.5457 47.5742H55.7971V47.3809H51.5902V47.5742Z" fill="black"/>
<path d="M72.9022 60.7404C72.5847 60.7404 72.3069 60.6271 72.0754 60.4004C71.8439 60.1737 71.7314 59.8937 71.7314 59.5604V49.5137C71.7314 48.7271 71.7777 48.0204 71.8637 47.4004L71.9034 47.0938H71.7116L61.2407 58.3604V48.7604C61.2539 48.4271 61.373 48.1404 61.6045 47.9204C61.836 47.6937 62.1072 47.5804 62.4313 47.5804H62.7951V47.3871H58.8396V47.5804H59.1836C59.5011 47.5804 59.7789 47.6937 60.0104 47.9204C60.2419 48.1471 60.361 48.4204 60.3742 48.7404V58.7271C60.3742 59.4737 60.3279 60.1871 60.2419 60.8604L60.2022 61.2071H60.3742L70.8451 49.9404V59.5804C70.8318 60.0337 70.6334 60.3671 70.2498 60.5871C70.0712 60.6871 69.8793 60.7404 69.6743 60.7404H69.3105V60.9337H73.266V60.7404H72.9022Z" fill="black"/>
<path d="M19.0002 8.25333C18.5901 8.25333 18.2395 8.4 17.9485 8.68667C17.6575 8.97333 17.4987 9.32667 17.4855 9.73333V32.8333C17.4855 33.7867 17.545 34.6933 17.6575 35.5467L17.7038 35.9933H17.4855L4.1571 21.6467V33.92C4.17033 34.4933 4.4283 34.92 4.91778 35.2C5.14268 35.3333 5.38742 35.4 5.652 35.4H6.11502V35.6467H1.07471V35.4H1.53773C1.94783 35.4 2.29841 35.2533 2.58945 34.9667C2.88049 34.68 3.03262 34.32 3.03262 33.8933V21.1C3.03262 20.1 2.97309 19.2 2.86064 18.4133L2.81434 18.02H3.05908L16.3875 32.3667V9.75333C16.3742 9.32667 16.2155 8.96667 15.9244 8.68C15.6334 8.39333 15.2828 8.24667 14.8727 8.24667H14.4097V8H19.45V8.24667H19.0002V8.25333Z" fill="url(#paint4_linear_546_6391)"/>
<path d="M24.1927 20.52C25.8133 18.8667 27.93 18.04 30.5361 18.04C33.1422 18.04 35.2655 18.8667 36.8927 20.52C38.5199 22.1734 39.3401 24.3334 39.3401 27.0134C39.3401 29.6934 38.5265 31.8534 36.8927 33.5067C35.2655 35.16 33.1422 35.9867 30.5361 35.9867C27.93 35.9867 25.8133 35.16 24.1927 33.5067C22.5721 31.8534 21.7585 29.6934 21.7585 27.0134C21.7652 24.34 22.5721 22.1734 24.1927 20.52ZM25.5421 32.98C26.8055 34.4934 28.479 35.2467 30.5559 35.2467C32.6329 35.2467 34.3064 34.4934 35.5698 32.98C36.8332 31.4667 37.4682 29.48 37.4682 27.0134C37.4682 25.3867 37.1838 23.9467 36.6149 22.7C36.046 21.4534 35.2325 20.4867 34.1807 19.8067C33.129 19.1267 31.9185 18.7867 30.5493 18.7867C28.479 18.7867 26.8121 19.54 25.5487 21.0534C24.2853 22.5667 23.6503 24.5534 23.6503 27.02C23.6437 29.48 24.2787 31.4734 25.5421 32.98Z" fill="url(#paint5_linear_546_6391)"/>
<path d="M58.0528 18.6402H57.8345C57.2789 18.6402 56.7762 18.8602 56.3198 19.3069C56.0618 19.5402 55.8567 19.8269 55.7112 20.1669L49.8176 33.4536C49.2157 34.7869 48.9114 35.6336 48.9114 35.9936H48.6931L41.8206 20.1936C41.5891 19.6669 41.2782 19.2802 40.8813 19.0202C40.4844 18.7669 40.081 18.6402 39.6708 18.6402H39.4724V18.3936H44.9757V18.6402H44.7575C44.268 18.6402 43.9439 18.8736 43.7785 19.3269C43.7454 19.4269 43.7322 19.5402 43.7322 19.6736C43.7322 19.8069 43.7719 19.9669 43.8513 20.1669L48.9643 33.0802L54.2957 20.1669C54.3618 19.9669 54.3949 19.7736 54.3949 19.5869C54.3949 19.4002 54.3089 19.1936 54.1369 18.9736C53.965 18.7536 53.707 18.6402 53.3696 18.6402H53.1514V18.3936H58.066V18.6402H58.0528Z" fill="url(#paint6_linear_546_6391)"/>
<path d="M72.7239 35.4002H72.9224V35.6469H67.419V35.4002H67.6373C67.9813 35.4002 68.2392 35.2869 68.4046 35.0669C68.5766 34.8469 68.6626 34.6335 68.6626 34.4402C68.6626 34.2469 68.6295 34.0469 68.5634 33.8469L66.9957 29.6535H60.3943L58.7605 33.8669C58.6944 34.0669 58.6613 34.2602 58.6613 34.4469C58.6613 34.6335 58.7473 34.8402 58.9193 35.0602C59.0913 35.2802 59.3492 35.3935 59.6866 35.3935H59.9049V35.6402H54.9902V35.4002H55.2085C55.6186 35.4002 56.0155 35.2669 56.4058 35.0069C56.796 34.7469 57.1135 34.3602 57.3583 33.8469L62.888 20.5869C63.49 19.2535 63.7942 18.4069 63.7942 18.0469H64.0125L70.5676 33.8469C70.7991 34.3535 71.1034 34.7402 71.4936 35.0069C71.8971 35.2669 72.3006 35.4002 72.7239 35.4002ZM60.692 28.9135H66.7047L63.7678 21.0002L60.692 28.9135Z" fill="url(#paint7_linear_546_6391)"/>
</g>
<defs>
<linearGradient id="paint0_linear_546_6391" x1="112.743" y1="39.6421" x2="73.1615" y2="39.6421" gradientUnits="userSpaceOnUse">
<stop stop-color="#FFFFD2"/>
<stop offset="0.4144" stop-color="#DDB258"/>
<stop offset="1" stop-color="#CC8F4C"/>
</linearGradient>
<linearGradient id="paint1_linear_546_6391" x1="73.2097" y1="39.6252" x2="94.0256" y2="39.6252" gradientUnits="userSpaceOnUse">
<stop stop-color="#F4C76A"/>
<stop offset="1" stop-color="#FBE89C"/>
</linearGradient>
<linearGradient id="paint2_linear_546_6391" x1="63.0994" y1="39.9749" x2="69.9461" y2="39.9749" gradientUnits="userSpaceOnUse">
<stop stop-color="white"/>
<stop offset="0.4144" stop-color="#DDBE7D"/>
<stop offset="1" stop-color="#CC8F4C"/>
</linearGradient>
<linearGradient id="paint3_linear_546_6391" x1="-10.422" y1="39.8283" x2="66.239" y2="39.8283" gradientUnits="userSpaceOnUse">
<stop stop-color="white"/>
<stop offset="0.4144" stop-color="#DDBE7D"/>
<stop offset="1" stop-color="#CC8F4C"/>
</linearGradient>
<linearGradient id="paint4_linear_546_6391" x1="3.3301" y1="21.9976" x2="68.8259" y2="21.9976" gradientUnits="userSpaceOnUse">
<stop stop-color="#CC8F4C"/>
<stop offset="1" stop-color="#DDBE7D"/>
</linearGradient>
<linearGradient id="paint5_linear_546_6391" x1="3.33013" y1="27.0174" x2="68.8259" y2="27.0174" gradientUnits="userSpaceOnUse">
<stop stop-color="#CC8F4C"/>
<stop offset="1" stop-color="#DDBE7D"/>
</linearGradient>
<linearGradient id="paint6_linear_546_6391" x1="3.33015" y1="27.1901" x2="68.8259" y2="27.1901" gradientUnits="userSpaceOnUse">
<stop stop-color="#CC8F4C"/>
<stop offset="1" stop-color="#DDBE7D"/>
</linearGradient>
<linearGradient id="paint7_linear_546_6391" x1="3.33016" y1="26.845" x2="68.826" y2="26.845" gradientUnits="userSpaceOnUse">
<stop stop-color="#CC8F4C"/>
<stop offset="1" stop-color="#E6AE6F"/>
</linearGradient>
<clipPath id="clip0_546_6391">
<rect width="109" height="72" fill="white"/>
</clipPath>
</defs>
</svg>
