<svg width="127" height="72" viewBox="0 0 127 72" fill="none" xmlns="http://www.w3.org/2000/svg">
<path d="M109.994 39.493L122.099 24.7863L104.689 32.533L94.4562 15.293L96.7581 35.4796L82.1399 38.993V41.073L96.8904 43.913L95.3757 63.993L104.987 46.4196L123.422 54.3063L109.994 39.493Z" fill="url(#paint0_linear_693_2311)"/>
<path d="M116.78 49.573L104.226 44.1996L97.7106 56.113L98.6235 44.013L98.7359 42.4863L85.5795 39.9596L98.6565 36.8196L97.0955 23.1396L103.988 34.753L116.066 29.3796L107.699 39.5463L108.684 40.633L116.78 49.573Z" fill="url(#paint1_linear_693_2311)"/>
<path opacity="0.13" d="M116.78 49.5728L104.226 44.1995L97.7106 56.1128L98.6234 44.0128C98.6234 44.0128 103.518 44.3195 108.684 40.6328L116.78 49.5728Z" fill="#4C3409"/>
<path d="M84.164 38.5059L84.078 41.4459L77.6486 40.2125L77.3179 40.1459L80.2415 39.4459L84.164 38.5059Z" fill="url(#paint2_linear_693_2311)"/>
<path d="M77.3179 40.1463L3.57849 40.213V39.4463H80.2415L77.3179 40.1463Z" fill="url(#paint3_linear_693_2311)"/>
<path d="M19.8173 54.2405C19.8173 56.1205 19.7776 57.8605 19.8305 59.6005C19.857 60.6272 19.9231 60.6205 20.9418 60.8339C21.0542 60.8539 21.1534 60.9339 21.2593 60.9872C21.246 61.0472 21.2394 61.1005 21.2262 61.1605C19.7908 61.1605 18.3555 61.1605 16.9003 61.1605C16.9267 61.0339 16.9267 60.9872 16.9333 60.9872C18.1637 60.7939 18.0843 59.8072 18.1041 58.9405C18.1504 57.1139 18.1504 55.2872 18.1504 53.4605C18.1504 52.0672 18.1372 50.6805 18.1173 49.2872C18.0975 48.0472 18.0843 48.0539 16.8937 47.6672C16.801 47.6405 16.7283 47.5605 16.6621 47.3672C18.0777 47.3672 19.4866 47.3672 20.9682 47.3672C20.9021 47.4939 20.869 47.6005 20.8293 47.6072C19.8371 47.7539 19.7181 48.4672 19.7247 49.2805C19.7313 50.6672 19.7247 52.0472 19.7247 53.5339C19.943 53.3539 20.1083 53.2339 20.2539 53.0872C21.6231 51.6605 22.9989 50.2272 24.3615 48.7872C24.7253 48.4005 25.1023 48.0005 24.4012 47.3672C25.744 47.3672 26.9081 47.3672 28.2707 47.3672C28.0326 47.5472 27.9665 47.6405 27.8871 47.6539C26.8221 47.8472 26.0284 48.4872 25.3008 49.2339C23.9382 50.6272 22.569 52.0272 21.1468 53.4805C21.9737 54.3472 22.7939 55.2472 23.6471 56.1072C24.7121 57.1872 25.7969 58.2539 26.8817 59.3205C27.6887 60.1139 28.575 60.7605 29.759 60.8472C29.8384 60.8539 29.9112 60.9539 30.136 61.1139C28.1186 61.3339 26.3393 61.3872 24.9238 59.8205C23.3032 58.0272 21.6363 56.2739 19.9959 54.5072C19.9297 54.4539 19.8967 54.3739 19.8173 54.2405Z" fill="white"/>
<path d="M53.4458 60.5875C52.9696 60.3809 52.5793 60.0542 52.275 59.6209L48.551 53.7142L51.9112 48.7209C52.1428 48.4009 52.4272 48.1275 52.7645 47.9075C53.1019 47.6875 53.4657 47.5809 53.8493 47.5809H54.1205V47.3875H49.7946V47.5809H50.0261C50.3105 47.5809 50.5288 47.7142 50.6809 47.9875C50.7603 48.1142 50.8 48.2475 50.8 48.3875C50.8 48.5209 50.7603 48.6542 50.6809 48.7875L48.0616 52.9342L45.4091 48.7542C45.3496 48.6275 45.3165 48.4942 45.3165 48.3675C45.3165 48.2409 45.3628 48.1009 45.4488 47.9609C45.6142 47.7009 45.8324 47.5742 46.1036 47.5742H46.3352V47.3809H42.3069H39.2774C39.2708 47.4342 39.2642 47.4875 39.2575 47.5409C39.575 47.6542 39.8925 47.7675 40.3225 47.9209C39.2642 51.3342 37.9082 54.5875 36.5985 58.0609C35.1367 54.9075 33.7476 51.9609 32.4048 48.9875C31.9881 48.0609 32.0609 48.0009 33.02 47.6209C33.0597 47.6009 33.0861 47.5475 33.225 47.3875H28.4559C28.5485 47.5875 28.661 47.6875 28.78 47.6942C29.6598 47.7409 30.0963 48.3342 30.4535 49.0475C32.0873 52.3342 33.6815 55.6409 35.4012 58.8809C35.9238 59.8742 35.6526 60.5742 35.13 61.3275C34.5215 62.1942 33.6087 62.0875 33.1986 61.1009C33.0861 60.8275 33.0729 60.5209 33.0002 60.2342C32.9671 60.1075 32.8877 59.9875 32.8348 59.8675C32.7554 59.8742 32.676 59.8809 32.5967 59.8942C32.5702 60.7209 32.4974 61.5409 32.5371 62.3609C32.5504 62.5742 32.8679 62.8475 33.1126 62.9475C34.1048 63.3675 35.0507 63.1275 35.6989 62.2142C36.1222 61.6275 36.4596 60.9542 36.7374 60.2809C37.8288 57.6409 38.8805 54.9875 39.9587 52.3409C40.468 51.0809 40.9575 49.8075 41.5528 48.5875C41.7314 48.2209 42.0092 47.8675 42.4325 47.8142C42.836 47.7675 43.2329 47.9942 43.5173 48.2675C44.0994 48.8209 44.4963 49.6675 44.9196 50.3409C45.3827 51.0809 45.8457 51.8209 46.3087 52.5542C46.5336 52.9142 46.7585 53.2742 46.9834 53.6342C47.0032 53.6675 47.2744 54.0409 47.2546 54.0742L43.5835 59.5875C43.352 59.9075 43.0609 60.1809 42.717 60.4009C42.373 60.6209 42.0026 60.7275 41.619 60.7275H41.3478V60.9209H45.7068V60.7275H45.4554C45.1842 60.7275 44.9659 60.5875 44.8006 60.3209C44.7146 60.1942 44.6683 60.0609 44.6683 59.9275C44.6683 59.7875 44.708 59.6609 44.7873 59.5275L47.7441 54.8409L50.7008 59.5475C50.7669 59.6742 50.8 59.8075 50.8 59.9342C50.8 60.0609 50.7537 60.2009 50.6611 60.3409C50.509 60.6009 50.2907 60.7275 50.0062 60.7275H49.7747V60.9209H54.4645V60.7275H54.1933C53.9552 60.7409 53.6972 60.6875 53.4458 60.5875Z" fill="white"/>
<path d="M65.5902 47.5742H65.8415C66.0598 47.5742 66.2649 47.6275 66.4567 47.7275C66.8536 47.9609 67.0586 48.3075 67.0719 48.7742V53.9409H59.2137V48.7742C59.227 48.4409 59.3526 48.1542 59.5908 47.9209C59.8289 47.6875 60.1133 47.5742 60.444 47.5742H60.6954V47.3809H56.4885V47.5742H56.7399C57.0706 47.5742 57.3617 47.6875 57.5932 47.9209C57.8313 48.1542 57.957 48.4409 57.9702 48.7742V59.5209C57.957 59.8542 57.8313 60.1409 57.5932 60.3809C57.355 60.6209 57.0706 60.7409 56.7399 60.7409H56.4885V60.9342H60.6954V60.7409H60.444C60.1133 60.7409 59.8223 60.6209 59.5775 60.3809C59.3328 60.1409 59.2137 59.8542 59.2137 59.5209V54.5275H67.0719V59.5409C67.0586 59.8742 66.933 60.1609 66.6948 60.3942C66.4567 60.6275 66.1723 60.7409 65.8415 60.7409H65.5902V60.9342H69.7971V60.7409H69.5457C69.215 60.7409 68.9306 60.6209 68.6924 60.3809C68.4543 60.1409 68.3286 59.8542 68.322 59.5209V48.7942C68.3352 48.4609 68.4609 48.1742 68.6924 47.9342C68.9306 47.6942 69.215 47.5742 69.5457 47.5742H69.7971V47.3809H65.5902V47.5742Z" fill="white"/>
<path d="M86.9024 60.7404C86.5849 60.7404 86.3071 60.6271 86.0756 60.4004C85.8441 60.1737 85.7316 59.8937 85.7316 59.5604V49.5137C85.7316 48.7271 85.7779 48.0204 85.8639 47.4004L85.9036 47.0938H85.7118L75.2409 58.3604V48.7604C75.2541 48.4271 75.3732 48.1404 75.6047 47.9204C75.8362 47.6937 76.1074 47.5804 76.4315 47.5804H76.7953V47.3871H72.8398V47.5804H73.1837C73.5012 47.5804 73.7791 47.6937 74.0106 47.9204C74.2421 48.1471 74.3611 48.4204 74.3744 48.7404V58.7271C74.3744 59.4737 74.3281 60.1871 74.2421 60.8604L74.2024 61.2071H74.3744L84.8453 49.9404V59.5804C84.832 60.0337 84.6336 60.3671 84.2499 60.5871C84.0713 60.6871 83.8795 60.7404 83.6745 60.7404H83.3107V60.9337H87.2662V60.7404H86.9024Z" fill="white"/>
<path d="M33.0002 8.25333C32.5901 8.25333 32.2395 8.4 31.9484 8.68667C31.6574 8.97333 31.4987 9.32667 31.4854 9.73333V32.8333C31.4854 33.7867 31.545 34.6933 31.6574 35.5467L31.7037 35.9933H31.4854L18.157 21.6467V33.92C18.1703 34.4933 18.4282 34.92 18.9177 35.2C19.1426 35.3333 19.3874 35.4 19.6519 35.4H20.115V35.6467H15.0746V35.4H15.5377C15.9478 35.4 16.2983 35.2533 16.5894 34.9667C16.8804 34.68 17.0326 34.32 17.0326 33.8933V21.1C17.0326 20.1 16.973 19.2 16.8606 18.4133L16.8143 18.02H17.059L30.3874 32.3667V9.75333C30.3742 9.32667 30.2154 8.96667 29.9244 8.68C29.6333 8.39333 29.2828 8.24667 28.8727 8.24667H28.4096V8H33.45V8.24667H33.0002V8.25333Z" fill="url(#paint4_linear_693_2311)"/>
<path d="M38.1926 20.52C39.8132 18.8667 41.9299 18.04 44.536 18.04C47.1422 18.04 49.2654 18.8667 50.8926 20.52C52.5198 22.1734 53.34 24.3334 53.34 27.0134C53.34 29.6934 52.5264 31.8534 50.8926 33.5067C49.2654 35.16 47.1422 35.9867 44.536 35.9867C41.9299 35.9867 39.8132 35.16 38.1926 33.5067C36.5721 31.8534 35.7585 29.6934 35.7585 27.0134C35.7651 24.34 36.5721 22.1734 38.1926 20.52ZM39.542 32.98C40.8054 34.4934 42.4789 35.2467 44.5559 35.2467C46.6328 35.2467 48.3063 34.4934 49.5697 32.98C50.8331 31.4667 51.4681 29.48 51.4681 27.0134C51.4681 25.3867 51.1837 23.9467 50.6148 22.7C50.046 21.4534 49.2324 20.4867 48.1806 19.8067C47.1289 19.1267 45.9185 18.7867 44.5492 18.7867C42.4789 18.7867 40.812 19.54 39.5486 21.0534C38.2852 22.5667 37.6502 24.5534 37.6502 27.02C37.6436 29.48 38.2786 31.4734 39.542 32.98Z" fill="url(#paint5_linear_693_2311)"/>
<path d="M72.0527 18.6402H71.8344C71.2787 18.6402 70.776 18.8602 70.3196 19.3069C70.0617 19.5402 69.8566 19.8269 69.7111 20.1669L63.8175 33.4536C63.2156 34.7869 62.9113 35.6336 62.9113 35.9936H62.693L55.8205 20.1936C55.589 19.6669 55.2781 19.2802 54.8812 19.0202C54.4843 18.7669 54.0808 18.6402 53.6707 18.6402H53.4723V18.3936H58.9756V18.6402H58.7573C58.2679 18.6402 57.9437 18.8736 57.7784 19.3269C57.7453 19.4269 57.7321 19.5402 57.7321 19.6736C57.7321 19.8069 57.7718 19.9669 57.8511 20.1669L62.9642 33.0802L68.2956 20.1669C68.3617 19.9669 68.3948 19.7736 68.3948 19.5869C68.3948 19.4002 68.3088 19.1936 68.1368 18.9736C67.9648 18.7536 67.7069 18.6402 67.3695 18.6402H67.1512V18.3936H72.0659V18.6402H72.0527Z" fill="url(#paint6_linear_693_2311)"/>
<path d="M86.7238 35.4002H86.9222V35.6469H81.4189V35.4002H81.6372C81.9812 35.4002 82.2391 35.2869 82.4045 35.0669C82.5765 34.8469 82.6625 34.6335 82.6625 34.4402C82.6625 34.2469 82.6294 34.0469 82.5632 33.8469L80.9956 29.6535H74.3942L72.7604 33.8669C72.6943 34.0669 72.6612 34.2602 72.6612 34.4469C72.6612 34.6335 72.7472 34.8402 72.9192 35.0602C73.0912 35.2802 73.3491 35.3935 73.6865 35.3935H73.9048V35.6402H68.9901V35.4002H69.2084C69.6185 35.4002 70.0154 35.2669 70.4056 35.0069C70.7959 34.7469 71.1134 34.3602 71.3581 33.8469L76.8879 20.5869C77.4899 19.2535 77.7941 18.4069 77.7941 18.0469H78.0124L84.5675 33.8469C84.799 34.3535 85.1032 34.7402 85.4935 35.0069C85.897 35.2669 86.3005 35.4002 86.7238 35.4002ZM74.6919 28.9135H80.7045L77.7677 21.0002L74.6919 28.9135Z" fill="url(#paint7_linear_693_2311)"/>
<defs>
<linearGradient id="paint0_linear_693_2311" x1="126.743" y1="39.6421" x2="87.1615" y2="39.6421" gradientUnits="userSpaceOnUse">
<stop stop-color="#FFFFD2"/>
<stop offset="0.4144" stop-color="#DDB258"/>
<stop offset="1" stop-color="#CC8F4C"/>
</linearGradient>
<linearGradient id="paint1_linear_693_2311" x1="87.2096" y1="39.6252" x2="108.025" y2="39.6252" gradientUnits="userSpaceOnUse">
<stop stop-color="#F4C76A"/>
<stop offset="1" stop-color="#FBE89C"/>
</linearGradient>
<linearGradient id="paint2_linear_693_2311" x1="77.0994" y1="39.9749" x2="83.9461" y2="39.9749" gradientUnits="userSpaceOnUse">
<stop stop-color="white"/>
<stop offset="0.4144" stop-color="#DDBE7D"/>
<stop offset="1" stop-color="#CC8F4C"/>
</linearGradient>
<linearGradient id="paint3_linear_693_2311" x1="3.57783" y1="39.8283" x2="80.2389" y2="39.8283" gradientUnits="userSpaceOnUse">
<stop stop-color="white"/>
<stop offset="0.4144" stop-color="#DDBE7D"/>
<stop offset="1" stop-color="#CC8F4C"/>
</linearGradient>
<linearGradient id="paint4_linear_693_2311" x1="17.33" y1="21.9976" x2="82.8258" y2="21.9976" gradientUnits="userSpaceOnUse">
<stop stop-color="#FFC27F"/>
<stop offset="1" stop-color="#DDBE7D"/>
</linearGradient>
<linearGradient id="paint5_linear_693_2311" x1="17.33" y1="27.0174" x2="82.8259" y2="27.0174" gradientUnits="userSpaceOnUse">
<stop stop-color="#E7B37B"/>
<stop offset="1" stop-color="#DDBE7D"/>
</linearGradient>
<linearGradient id="paint6_linear_693_2311" x1="17.33" y1="27.1901" x2="82.8258" y2="27.1901" gradientUnits="userSpaceOnUse">
<stop stop-color="#AB8142"/>
<stop offset="1" stop-color="#FFE4AC"/>
</linearGradient>
<linearGradient id="paint7_linear_693_2311" x1="17.33" y1="26.845" x2="82.8258" y2="26.845" gradientUnits="userSpaceOnUse">
<stop stop-color="#CC8F4C"/>
<stop offset="1" stop-color="#DDBE7D"/>
</linearGradient>
</defs>
</svg>
