<svg width="11" height="15" viewBox="0 0 11 15" fill="none" xmlns="http://www.w3.org/2000/svg">
<path d="M5.76613 0.607422C2.96742 0.607422 0.691406 2.88344 0.691406 5.68215C0.691406 9.19978 5.27219 13.8212 5.46673 14.0165C5.54961 14.0986 5.65787 14.14 5.76613 14.14C5.8744 14.14 5.98266 14.0986 6.06554 14.0165C6.26008 13.8212 10.8409 9.19978 10.8409 5.68215C10.8409 2.88344 8.56485 0.607422 5.76613 0.607422ZM5.76613 13.1056C4.75626 12.0247 1.53719 8.36922 1.53719 5.68215C1.53719 3.35031 3.4343 1.45321 5.76613 1.45321C8.09797 1.45321 9.99508 3.35031 9.99508 5.68215C9.99508 8.36668 6.77601 12.0247 5.76613 13.1056Z" fill="white"/>
<path d="M5.76612 3.14453C4.36719 3.14453 3.22876 4.28296 3.22876 5.6819C3.22876 7.08083 4.36719 8.21926 5.76612 8.21926C7.16506 8.21926 8.30349 7.08083 8.30349 5.6819C8.30349 4.28296 7.16506 3.14453 5.76612 3.14453ZM5.76612 7.37347C4.83322 7.37347 4.07455 6.6148 4.07455 5.6819C4.07455 4.74899 4.83322 3.99032 5.76612 3.99032C6.69903 3.99032 7.4577 4.74899 7.4577 5.6819C7.4577 6.6148 6.69903 7.37347 5.76612 7.37347Z" fill="white"/>
</svg>
