<svg width="15" height="15" viewBox="0 0 15 15" fill="none" xmlns="http://www.w3.org/2000/svg">
<path d="M7.50024 0C4.39806 0 1.87524 2.52281 1.87524 5.625C1.87524 9.52406 6.95274 14.6466 7.16837 14.8631C7.26024 14.9541 7.38024 15 7.50024 15C7.62024 15 7.74024 14.9541 7.83212 14.8631C8.04774 14.6466 13.1252 9.52406 13.1252 5.625C13.1252 2.52281 10.6024 0 7.50024 0ZM7.50024 13.8534C6.38087 12.6553 2.81274 8.60344 2.81274 5.625C2.81274 3.04031 4.91556 0.9375 7.50024 0.9375C10.0849 0.9375 12.1877 3.04031 12.1877 5.625C12.1877 8.60063 8.61962 12.6553 7.50024 13.8534Z" fill="black"/>
<path d="M7.50024 2.8125C5.94962 2.8125 4.68774 4.07437 4.68774 5.625C4.68774 7.17562 5.94962 8.4375 7.50024 8.4375C9.05087 8.4375 10.3127 7.17562 10.3127 5.625C10.3127 4.07437 9.05087 2.8125 7.50024 2.8125ZM7.50024 7.5C6.46618 7.5 5.62524 6.65906 5.62524 5.625C5.62524 4.59094 6.46618 3.75 7.50024 3.75C8.53431 3.75 9.37524 4.59094 9.37524 5.625C9.37524 6.65906 8.53431 7.5 7.50024 7.5Z" fill="black"/>
</svg>
