<svg width="31" height="32" viewBox="0 0 31 32" fill="none" xmlns="http://www.w3.org/2000/svg">
<rect y="0.63501" width="30.8067" height="30.8067" rx="7.18823" fill="#EBDCB4"/>
<g clip-path="url(#clip0_166_7092)">
<path d="M8.87805 7H22.1223C22.332 7 22.502 7.17221 22.502 7.38468V9.20679C22.502 9.41921 22.332 9.59147 22.1223 9.59147H21.0452C20.9936 11.1827 20.6234 12.6896 19.9652 13.9705C19.2544 15.354 18.2762 16.3507 17.1366 16.8528C17.0873 16.8745 17.0359 16.8848 16.9854 16.8848C16.8388 16.8848 16.6992 16.7983 16.6371 16.6534C16.5535 16.4586 16.6416 16.232 16.8338 16.1472C18.7881 15.2863 20.176 12.6232 20.2851 9.59147H8.8781C8.66848 9.59147 8.49848 9.41926 8.49848 9.20679V7.38468C8.49848 7.17221 8.66843 7 8.87805 7ZM9.25766 8.82212H21.7427V7.7693H9.25761V8.82212H9.25766Z" fill="#6C6259"/>
<path d="M8.87805 23.4085H9.95523C10.0067 21.8172 10.377 20.3104 11.0352 19.0294C11.6064 17.9176 12.3503 17.0556 13.2119 16.4994C12.4913 16.0321 11.8462 15.3456 11.3206 14.4809C10.6488 13.3757 10.2023 12.027 10.0295 10.5807C10.0043 10.3698 10.1525 10.1781 10.3607 10.1526C10.5687 10.1266 10.758 10.2773 10.7832 10.4882C11.1026 13.1611 12.4307 15.3824 14.1665 16.1471C14.3051 16.2082 14.3947 16.3468 14.3947 16.5C14.3947 16.6531 14.3051 16.7916 14.1665 16.8528C12.2122 17.7138 10.8234 20.3768 10.7144 23.4085H18.6852C18.5543 22.2214 17.1763 21.2842 15.5001 21.2842C14.2909 21.2842 13.1629 21.7953 12.6267 22.5863C12.5281 22.7316 12.332 22.7684 12.1885 22.6686C12.0451 22.5688 12.0087 22.37 12.1072 22.2246C12.7676 21.2506 14.0677 20.6456 15.5001 20.6456C17.5293 20.6456 19.1939 21.869 19.3184 23.4086H20.286C20.2058 21.1401 19.4191 19.0562 18.1471 17.7772C17.9983 17.6276 17.9974 17.384 18.145 17.2332C18.2926 17.0825 18.533 17.0814 18.6819 17.2312C20.093 18.65 20.9628 20.9377 21.045 23.4086H22.1223C22.332 23.4086 22.502 23.5809 22.502 23.7933V25.6154C22.502 25.8279 22.332 26.0001 22.1223 26.0001H8.87805C8.66843 26.0001 8.49843 25.8279 8.49843 25.6154V23.7933C8.49848 23.5807 8.66843 23.4085 8.87805 23.4085ZM9.25766 25.2307H21.7427V24.1778H20.6724H10.328H9.25766V25.2307Z" fill="#6C6259"/>
<path d="M15.5003 20.2226C15.4004 20.2226 15.3025 20.1817 15.232 20.1098C15.1611 20.0384 15.1208 19.9393 15.1208 19.8379C15.1208 19.7367 15.1611 19.6375 15.232 19.5661C15.3025 19.4942 15.4004 19.4534 15.5003 19.4534C15.6003 19.4534 15.6982 19.4942 15.7686 19.5661C15.8396 19.6375 15.8799 19.7367 15.8799 19.8379C15.8799 19.9393 15.8396 20.0385 15.7686 20.1098C15.6982 20.1817 15.6003 20.2226 15.5003 20.2226Z" fill="#6C6259"/>
<path d="M15.5003 17.7839C15.6003 17.7839 15.6982 17.8254 15.7686 17.8967C15.8396 17.9686 15.8799 18.0678 15.8799 18.1686C15.8799 18.2699 15.8396 18.369 15.7686 18.441C15.6982 18.5123 15.6003 18.5537 15.5003 18.5537C15.4009 18.5537 15.303 18.5123 15.232 18.441C15.1611 18.369 15.1208 18.2699 15.1208 18.1686C15.1208 18.0677 15.1611 17.9686 15.232 17.8967C15.3025 17.8254 15.4004 17.7839 15.5003 17.7839Z" fill="#6C6259"/>
<path d="M15.232 16.2283C15.3025 16.1563 15.4004 16.1155 15.5003 16.1155C15.6003 16.1155 15.6982 16.1563 15.7686 16.2283C15.8396 16.2996 15.8799 16.3988 15.8799 16.5001C15.8799 16.6014 15.8396 16.7006 15.7686 16.772C15.6982 16.8438 15.6003 16.8847 15.5003 16.8847C15.4004 16.8847 15.3025 16.8438 15.232 16.772C15.1611 16.7005 15.1208 16.6014 15.1208 16.5001C15.1208 16.3988 15.1611 16.2996 15.232 16.2283Z" fill="#6C6259"/>
<path d="M13.2682 14.1764C12.7096 13.4778 12.2707 12.533 11.9991 11.4443C11.9705 11.3293 11.9957 11.2072 12.0676 11.1137C12.1395 11.0201 12.2501 10.9653 12.3671 10.9653H18.6331C18.7502 10.9653 18.8607 11.0201 18.9326 11.1137C19.0045 11.2073 19.0298 11.3293 19.0011 11.4443C18.7294 12.533 18.2906 13.4778 17.732 14.1764C17.087 14.9831 16.3152 15.4095 15.5001 15.4095C14.685 15.4095 13.9132 14.9831 13.2682 14.1764ZM15.5001 14.6402C16.7008 14.6402 17.6486 13.2479 18.1294 11.7346H12.8708C13.3516 13.248 14.2995 14.6402 15.5001 14.6402Z" fill="#6C6259"/>
</g>
<defs>
<clipPath id="clip0_166_7092">
<rect width="15" height="19" fill="white" transform="matrix(-1 0 0 1 23 7)"/>
</clipPath>
</defs>
</svg>
