<svg width="31" height="32" viewBox="0 0 31 32" fill="none" xmlns="http://www.w3.org/2000/svg">
<rect y="0.63501" width="30.8067" height="30.8067" rx="7.18823" fill="#EBDCB4"/>
<g clip-path="url(#clip0_166_7115)">
<path d="M17.2884 18.9081C17.0101 18.7133 16.6264 18.781 16.4316 19.0594L13.5605 23.1609C13.3656 23.4393 13.4333 23.8229 13.7117 24.0178C13.9901 24.2127 14.3737 24.1449 14.5686 23.8666L17.4397 19.765C17.6345 19.4866 17.5668 19.103 17.2884 18.9081Z" fill="#6C6259"/>
<path d="M16.7305 24.1289C17.0703 24.1289 17.3457 23.8535 17.3457 23.5137C17.3457 23.1739 17.0703 22.8984 16.7305 22.8984C16.3907 22.8984 16.1152 23.1739 16.1152 23.5137C16.1152 23.8535 16.3907 24.1289 16.7305 24.1289Z" fill="#6C6259"/>
<path d="M14.2695 20.0273C14.6093 20.0273 14.8848 19.7519 14.8848 19.4121C14.8848 19.0723 14.6093 18.7969 14.2695 18.7969C13.9297 18.7969 13.6543 19.0723 13.6543 19.4121C13.6543 19.7519 13.9297 20.0273 14.2695 20.0273Z" fill="#6C6259"/>
<path d="M25.3848 8.54297H23.498V7.8457C23.498 6.82798 22.6701 6 21.6523 6C20.6346 6 19.8066 6.82798 19.8066 7.8457V8.54297H17.3457V7.8457C17.3457 6.82798 16.5177 6 15.5 6C14.4823 6 13.6543 6.82798 13.6543 7.8457V8.54297H11.1934V7.8457C11.1934 6.82798 10.3654 6 9.34766 6C8.32994 6 7.50195 6.82798 7.50195 7.8457V8.54297H5.61523C5.27546 8.54297 5 8.81843 5 9.1582V23.5137C5 23.8534 5.27546 24.1289 5.61523 24.1289H10.6483C11.5918 25.8389 13.4128 27 15.5 27C17.5872 27 19.4083 25.8389 20.3517 24.1289H25.3848C25.7245 24.1289 26 23.8534 26 23.5137V9.1582C26 8.81843 25.7245 8.54297 25.3848 8.54297ZM21.0371 7.8457C21.0371 7.50646 21.3131 7.23047 21.6523 7.23047C21.9916 7.23047 22.2676 7.50646 22.2676 7.8457V8.54297H21.0371V7.8457ZM14.8848 7.8457C14.8848 7.50646 15.1608 7.23047 15.5 7.23047C15.8392 7.23047 16.1152 7.50646 16.1152 7.8457V8.54297H14.8848V7.8457ZM8.73242 7.8457C8.73242 7.50646 9.00842 7.23047 9.34766 7.23047C9.6869 7.23047 9.96289 7.50646 9.96289 7.8457V8.54297H8.73242V7.8457ZM15.5 25.7695C13.1253 25.7695 11.1934 23.8376 11.1934 21.4629C11.1934 19.0882 13.1253 17.1562 15.5 17.1562C17.8747 17.1562 19.8066 19.0882 19.8066 21.4629C19.8066 23.8376 17.8747 25.7695 15.5 25.7695ZM24.7695 22.8984H20.848C20.9711 22.4404 21.0371 21.9593 21.0371 21.4629C21.0371 18.4097 18.5532 15.9258 15.5 15.9258C12.4468 15.9258 9.96289 18.4097 9.96289 21.4629C9.96289 21.9593 10.0289 22.4404 10.152 22.8984H6.23047V13.0547H24.7695V22.8984ZM24.7695 11.8242H6.23047V9.77344H9.96289V9.97852C9.96289 10.3183 10.2384 10.5938 10.5781 10.5938C10.9179 10.5938 11.1934 10.3183 11.1934 9.97852V9.77344H16.1152V9.97852C16.1152 10.3183 16.3907 10.5938 16.7305 10.5938C17.0702 10.5938 17.3457 10.3183 17.3457 9.97852V9.77344H22.2676V9.97852C22.2676 10.3183 22.543 10.5938 22.8828 10.5938C23.2226 10.5938 23.498 10.3183 23.498 9.97852V9.77344H24.7695V11.8242Z" fill="#6C6259" stroke="#EBDCB4" stroke-width="0.3"/>
</g>
<defs>
<clipPath id="clip0_166_7115">
<rect width="21" height="21" fill="white" transform="translate(5 6)"/>
</clipPath>
</defs>
</svg>
