<svg width="40" height="40" viewBox="0 0 40 40" fill="none" xmlns="http://www.w3.org/2000/svg">
<rect width="39.6364" height="39.6364" rx="8.78182" fill="#EBDCB4"/>
<path d="M10.5264 7H28.8918C29.1825 7 29.4182 7.23566 29.4182 7.5264V10.0198C29.4182 10.3105 29.1826 10.5462 28.8918 10.5462H27.3981C27.3267 12.7237 26.8133 14.7857 25.9006 16.5386C24.9149 18.4318 23.5585 19.7957 21.9782 20.4828C21.9098 20.5125 21.8386 20.5266 21.7686 20.5266C21.5653 20.5266 21.3717 20.4082 21.2855 20.2099C21.1696 19.9433 21.2918 19.6332 21.5584 19.5173C24.2684 18.3391 26.1929 14.6949 26.3442 10.5462H10.5265C10.2358 10.5462 10.0001 10.3106 10.0001 10.0198V7.5264C10.0001 7.23566 10.2357 7 10.5264 7ZM11.0528 9.49342H28.3654V8.05273H11.0527V9.49342H11.0528Z" fill="#6C6259"/>
<path d="M10.5264 29.4537H12.0201C12.0915 27.2762 12.6049 25.2142 13.5176 23.4613C14.3098 21.9399 15.3413 20.7604 16.536 19.9991C15.5368 19.3597 14.6423 18.4203 13.9135 17.237C12.9819 15.7246 12.3627 13.8791 12.123 11.8998C12.0881 11.6113 12.2937 11.3489 12.5824 11.314C12.8708 11.2786 13.1333 11.4848 13.1682 11.7733C13.6112 15.431 15.4527 18.4707 17.8597 19.5171C18.0519 19.6007 18.1762 19.7903 18.1762 19.9999C18.1762 20.2096 18.0519 20.3991 17.8597 20.4827C15.1497 21.661 13.224 25.305 13.0728 29.4538H24.1257C23.9441 27.8293 22.0334 26.5468 19.7089 26.5468C18.0322 26.5468 16.4681 27.2462 15.7245 28.3286C15.5878 28.5275 15.3158 28.5778 15.1169 28.4413C14.918 28.3047 14.8676 28.0327 15.0042 27.8337C15.9199 26.5008 17.7227 25.6729 19.7089 25.6729C22.5229 25.6729 24.831 27.3471 25.0036 29.4539H26.3455C26.2342 26.3496 25.1433 23.4979 23.3795 21.7478C23.1731 21.5431 23.1718 21.2097 23.3766 21.0034C23.5813 20.7971 23.9147 20.7956 24.121 21.0006C26.0778 22.9422 27.2839 26.0727 27.3979 29.4539H28.8918C29.1825 29.4539 29.4182 29.6896 29.4182 29.9803V32.4738C29.4182 32.7644 29.1826 33.0002 28.8918 33.0002H10.5264C10.2357 33.0002 10 32.7645 10 32.4738V29.9803C10.0001 29.6894 10.2357 29.4537 10.5264 29.4537ZM11.0528 31.9472H28.3654V30.5065H26.8812H12.537H11.0528V31.9472Z" fill="#6C6259"/>
<path d="M19.7091 25.0941C19.5705 25.0941 19.4348 25.0382 19.3371 24.9398C19.2388 24.8421 19.1829 24.7064 19.1829 24.5678C19.1829 24.4292 19.2388 24.2934 19.3371 24.1957C19.4349 24.0974 19.5705 24.0415 19.7091 24.0415C19.8478 24.0415 19.9836 24.0974 20.0811 24.1957C20.1796 24.2935 20.2355 24.4292 20.2355 24.5678C20.2355 24.7064 20.1796 24.8422 20.0811 24.9398C19.9836 25.0382 19.8478 25.0941 19.7091 25.0941Z" fill="#6C6259"/>
<path d="M19.7091 21.7573C19.8478 21.7573 19.9836 21.8141 20.0811 21.9116C20.1796 22.0101 20.2355 22.1457 20.2355 22.2837C20.2355 22.4223 20.1796 22.558 20.0811 22.6564C19.9835 22.7541 19.8478 22.8107 19.7091 22.8107C19.5712 22.8107 19.4355 22.754 19.3371 22.6564C19.2388 22.558 19.1829 22.4223 19.1829 22.2837C19.1829 22.1457 19.2388 22.0101 19.3371 21.9116C19.4348 21.8141 19.5705 21.7573 19.7091 21.7573Z" fill="#6C6259"/>
<path d="M19.3371 19.628C19.4349 19.5295 19.5705 19.4736 19.7091 19.4736C19.8478 19.4736 19.9836 19.5295 20.0811 19.628C20.1796 19.7256 20.2355 19.8613 20.2355 20C20.2355 20.1386 20.1796 20.2743 20.0811 20.372C19.9835 20.4703 19.8478 20.5262 19.7091 20.5262C19.5705 20.5262 19.4348 20.4703 19.3371 20.372C19.2388 20.2742 19.1829 20.1386 19.1829 20C19.1828 19.8613 19.2387 19.7255 19.3371 19.628Z" fill="#6C6259"/>
<path d="M16.6142 16.8204C15.8397 15.8643 15.2311 14.5715 14.8545 13.0816C14.8147 12.9243 14.8498 12.7573 14.9495 12.6293C15.0491 12.5013 15.2025 12.4263 15.3648 12.4263H24.0536C24.2159 12.4263 24.3691 12.5012 24.4689 12.6293C24.5686 12.7574 24.6037 12.9243 24.5639 13.0816C24.1871 14.5715 23.5786 15.8644 22.8041 16.8204C21.9096 17.9243 20.8394 18.5078 19.7091 18.5078C18.5789 18.5078 17.5086 17.9243 16.6142 16.8204ZM19.7092 17.4551C21.3741 17.4551 22.6884 15.5498 23.3551 13.479H16.0632C16.7299 15.5499 18.0443 17.4551 19.7092 17.4551Z" fill="#6C6259"/>
</svg>
