<svg width="40" height="40" viewBox="0 0 40 40" fill="none" xmlns="http://www.w3.org/2000/svg">
<rect width="39.6364" height="39.6364" rx="8.78182" fill="#EBDCB4"/>
<path d="M20.3893 12.611C20.5845 12.8063 20.5845 13.1228 20.3893 13.318C20.2915 13.4158 20.1638 13.4645 20.0358 13.4645C19.9078 13.4645 19.78 13.4158 19.6823 13.318C17.9273 11.5633 15.0728 11.5633 13.318 13.318C13.1228 13.5133 12.8063 13.5133 12.611 13.318C12.4158 13.1228 12.4158 12.8063 12.611 12.611C14.7553 10.4665 18.2448 10.4665 20.3893 12.611ZM30.5 28.5C30.5 29.0343 30.292 29.5365 29.914 29.914C29.5365 30.292 29.0343 30.5 28.5 30.5C27.9658 30.5 27.4635 30.292 27.086 29.914L21.836 24.664C21.6408 24.4688 21.6408 24.1523 21.836 23.957L22.543 23.25L21.4343 22.1413C20.1143 23.297 18.3883 24 16.5 24C12.3645 24 9 20.6355 9 16.5C9 12.3645 12.3645 9 16.5 9C20.6355 9 24 12.3645 24 16.5C24 18.3883 23.297 20.1143 22.1413 21.4343L23.25 22.543L23.957 21.836C24.1523 21.6408 24.4688 21.6408 24.664 21.836L29.914 27.086C30.292 27.4635 30.5 27.9658 30.5 28.5ZM23 16.5C23 12.916 20.0843 10 16.5 10C12.9158 10 10 12.916 10 16.5C10 20.084 12.9158 23 16.5 23C20.0843 23 23 20.084 23 16.5ZM29.5 28.5C29.5 28.233 29.396 27.982 29.207 27.793L24.3105 22.8965L22.8965 24.3105L27.793 29.207C28.171 29.585 28.8293 29.585 29.207 29.207C29.396 29.018 29.5 28.767 29.5 28.5Z" fill="#6C6259"/>
</svg>
