<svg width="40" height="40" viewBox="0 0 40 40" fill="none" xmlns="http://www.w3.org/2000/svg">
<rect width="39.6364" height="39.6364" rx="8.78182" fill="#EBDCB4"/>
<g clip-path="url(#clip0_7_8279)">
<path d="M10.3566 27.0591C10.0733 27.0591 9.83722 27.2952 9.83722 27.5785C9.83722 27.8618 10.0733 28.0979 10.3566 28.0979C10.6399 28.0979 10.876 27.8618 10.876 27.5785C10.876 27.2951 10.6399 27.0591 10.3566 27.0591Z" fill="#6C6259"/>
<path d="M24.5219 12.1382C24.2386 12.1382 24.0025 12.3743 24.0025 12.6576C24.0025 12.9409 24.2386 13.177 24.5219 13.177C24.8052 13.177 25.0413 12.9409 25.0413 12.6576C25.0413 12.3743 24.8052 12.1382 24.5219 12.1382Z" fill="#6C6259"/>
<path d="M27.4966 9.16357C27.2133 9.16357 26.9772 9.39968 26.9772 9.68299C26.9772 9.96629 27.2133 10.2024 27.4966 10.2024C27.7799 10.2024 28.016 9.96629 28.016 9.68299C28.016 9.39968 27.7799 9.16357 27.4966 9.16357Z" fill="#6C6259"/>
<path d="M30.4241 6.70826C29.9519 6.23611 29.2909 6 28.6298 6C27.9215 6 27.3077 6.28331 26.8355 6.80272L19.9071 14.424C19.8345 14.446 19.7653 14.4867 19.7057 14.5464L7.00417 27.2479C6.90972 27.3423 6.86252 27.4367 6.86252 27.5784C6.86252 27.72 6.90972 27.8145 7.00417 27.9089L11.4899 32.3946C11.5398 32.4445 11.5899 32.4808 11.6469 32.5044L13.0008 33.8583C13.0953 33.9528 13.1897 34 13.3313 34C13.473 34 13.5674 33.9528 13.6618 33.8583L26.3634 21.2041C26.4578 21.1096 26.505 21.0152 26.505 20.8736C26.505 20.7319 26.4578 20.6375 26.3634 20.5431L24.8524 19.0321C24.8524 19.0321 24.8524 19.0321 24.8523 19.032L22.9535 17.1332L30.3296 10.2968C30.849 9.82467 31.0851 9.16361 31.1324 8.50255C31.1796 7.84148 30.8962 7.18042 30.4241 6.70826ZM20.0362 15.5852L23.8372 19.3862L11.844 31.3794L8.04299 27.5784L20.0362 15.5852ZM13.3313 32.8668L12.5286 32.0641L24.5219 20.0708L25.3246 20.8735L13.3313 32.8668ZM30.2352 8.54975C30.188 8.9747 30.0463 9.35246 29.7158 9.63577L22.3027 16.4823L20.6973 14.8769L27.4966 7.46378C27.8271 7.13328 28.2049 6.94437 28.6299 6.94437C29.0548 6.94437 29.4798 7.13322 29.7631 7.41653C30.0935 7.69983 30.2824 8.12479 30.2352 8.54975Z" fill="#6C6259"/>
</g>
<defs>
<clipPath id="clip0_7_8279">
<rect width="28" height="28" fill="white" transform="translate(5 6)"/>
</clipPath>
</defs>
</svg>
