<svg width="40" height="40" viewBox="0 0 40 40" fill="none" xmlns="http://www.w3.org/2000/svg">
<rect width="39.6364" height="39.6364" rx="8.78182" fill="#EBDCB4"/>
<path d="M29.753 10.2469C27.0144 7.50828 23.3731 6 19.5 6C15.6269 6 11.9857 7.50828 9.24697 10.2469C6.50828 12.9856 5 16.6269 5 20.5C5 24.3731 6.50823 28.0144 9.24691 30.7531C11.9857 33.4917 15.6269 35 19.5 35C23.3731 35 27.0144 33.4917 29.7531 30.7531C32.4917 28.0144 34 24.3731 34 20.5C34 16.6269 32.4917 12.9856 29.753 10.2469ZM29.1523 30.1523C26.5741 32.7305 23.1462 34.1504 19.5 34.1504C15.8539 34.1504 12.4259 32.7305 9.84776 30.1523C7.26953 27.5741 5.84961 24.1462 5.84961 20.5C5.84961 16.8538 7.26953 13.4259 9.84776 10.8477C12.4259 8.26948 15.8539 6.84961 19.5 6.84961C23.1462 6.84961 26.5741 8.26948 29.1523 10.8477C31.7305 13.4259 33.1504 16.8538 33.1504 20.5C33.1504 24.1462 31.7305 27.5741 29.1523 30.1523Z" fill="#6C6259"/>
<path d="M26.7962 24.65H26.4798L24.6442 22.0254C24.7199 21.9692 24.792 21.9063 24.8593 21.8358C25.4984 21.1659 25.4735 20.1008 24.8036 19.4616C24.479 19.1519 24.0519 18.9875 23.605 18.9978C23.1565 19.0083 22.739 19.1927 22.4294 19.5173C22.1261 19.8351 21.9623 20.25 21.9656 20.6882L20.1028 21.2253C20.0224 21.0837 19.9209 20.9531 19.7998 20.8376C19.1298 20.1984 18.0647 20.2234 17.4255 20.8933C16.7864 21.5632 16.8114 22.6282 17.4813 23.2674C17.7961 23.5678 18.2059 23.7318 18.6394 23.7318C18.6529 23.7318 18.6665 23.7316 18.6799 23.7313C18.983 23.7242 19.2718 23.6374 19.523 23.4817L20.7474 24.6499H13.5552L16.9866 19.7435C17.5894 18.8816 17.908 17.8701 17.908 16.8183V13.9676H21.0903V16.8183C21.0903 17.3943 21.1868 17.9619 21.3772 18.5054C21.4547 18.7267 21.6969 18.8433 21.9185 18.7659C22.14 18.6883 22.2566 18.446 22.179 18.2245C22.0204 17.7715 21.9399 17.2984 21.9399 16.8183V13.9676H22.2249C22.6413 13.9676 22.9802 13.6288 22.9802 13.2123V11.8755C22.9802 11.4589 22.6414 11.1201 22.2249 11.1201H17.0461C16.6297 11.1201 16.2908 11.4589 16.2908 11.8755V13.2123C16.2908 13.6288 16.6296 13.9676 17.0461 13.9676H17.0584V16.8183C17.0584 17.6951 16.7928 18.5382 16.2903 19.2567L12.5183 24.65H12.2605C11.6772 24.65 11.2028 25.1245 11.2028 25.7077V27.6165C11.2028 28.1997 11.6772 28.6742 12.2605 28.6742H14.3357C14.5703 28.6742 14.7605 28.4841 14.7605 28.2494C14.7605 28.0148 14.5703 27.8246 14.3357 27.8246H12.2605C12.1458 27.8246 12.0524 27.7313 12.0524 27.6165V25.7077C12.0524 25.593 12.1457 25.4996 12.2605 25.4996H20.6998C20.6671 25.9806 20.8398 26.472 21.215 26.83C21.5298 27.1304 21.9397 27.2944 22.3732 27.2944C22.3866 27.2944 22.4002 27.2942 22.4136 27.2939C22.862 27.2834 23.2795 27.0989 23.5892 26.7743C23.8989 26.4498 24.0636 26.0241 24.053 25.5757C24.0525 25.5502 24.0511 25.5248 24.0494 25.4996H26.7962C26.8412 25.4996 26.9477 25.5804 26.9477 25.7077V27.6164C26.9477 27.7312 26.8544 27.8246 26.7396 27.8246H16.0349C15.8002 27.8246 15.6101 28.0147 15.6101 28.2494C15.6101 28.484 15.8002 28.6742 16.0349 28.6742H26.7396C27.3228 28.6742 27.7973 28.1996 27.7973 27.6164V25.7077C27.7973 25.1344 27.3389 24.65 26.7962 24.65ZM17.1404 11.9697H22.1305V13.1179H17.1404V11.9697ZM21.492 24.1861L20.1095 22.867C20.2478 22.6185 20.3204 22.338 20.3193 22.0469L22.1852 21.509C22.2651 21.6485 22.3654 21.7774 22.4851 21.8915C22.6059 22.0068 22.7395 22.1004 22.8813 22.1725L22.4606 23.9392C22.1252 23.9222 21.7861 24.0047 21.492 24.1861ZM23.0441 20.1038C23.2068 19.9332 23.4254 19.8473 23.6445 19.8473C23.8504 19.8473 24.0567 19.9233 24.217 20.0763C24.548 20.3921 24.5603 20.9183 24.2445 21.2493C24.0916 21.4097 23.8853 21.5008 23.6638 21.506C23.443 21.5095 23.2319 21.4298 23.0716 21.2769C22.7406 20.961 22.7283 20.4348 23.0441 20.1038ZM18.66 22.882C18.437 22.8877 18.2281 22.8058 18.0678 22.6528C17.7368 22.337 17.7245 21.8108 18.0403 21.4799C18.203 21.3092 18.4217 21.2233 18.6407 21.2233C18.8467 21.2233 19.0529 21.2993 19.2133 21.4523C19.5442 21.768 19.5566 22.2941 19.2411 22.625C19.241 22.6251 19.2409 22.6252 19.2408 22.6253C19.0878 22.7856 18.8815 22.8768 18.66 22.882ZM22.9745 26.1878C22.6587 26.5188 22.1324 26.5311 21.8016 26.2153C21.4706 25.8995 21.4582 25.3733 21.7741 25.0424C21.9368 24.8717 22.1555 24.7858 22.3745 24.7858C22.5804 24.7858 22.7867 24.8618 22.947 25.0148C23.278 25.3306 23.2903 25.8569 22.9745 26.1878ZM23.5335 24.4001C23.452 24.3223 23.3645 24.2545 23.2727 24.1963L23.7116 22.3534C23.7513 22.3518 23.791 22.3487 23.8305 22.3444L25.443 24.65H23.7492C23.6862 24.5608 23.6142 24.4771 23.5335 24.4001Z" fill="#6C6259"/>
<line x1="8.12643" y1="28.8466" x2="27.8464" y2="9.12664" stroke="#6C6259"/>
</svg>
