<svg width="40" height="40" viewBox="0 0 40 40" fill="none" xmlns="http://www.w3.org/2000/svg">
<rect width="39.6364" height="39.6364" rx="8.78182" fill="#EBDCB4"/>
<path d="M28.6146 13.2502H23.6617C23.9901 12.8142 24.1875 12.2741 24.1875 11.6877C24.1875 10.2517 23.0193 9.0835 21.5834 9.0835C20.731 9.0835 19.9755 9.49704 19.5 10.1319C19.0248 9.49704 18.269 9.0835 17.4167 9.0835C15.9807 9.0835 14.8125 10.2517 14.8125 11.6877C14.8125 12.2741 15.0099 12.8142 15.3383 13.2502H10.3854C9.52372 13.2502 8.82294 13.9509 8.82294 14.8127V16.896C8.82294 17.5749 9.25861 18.1522 9.8646 18.3674V28.3543C9.8646 29.216 10.5654 29.9168 11.4271 29.9168H27.5729C28.4347 29.9168 29.1354 29.216 29.1354 28.3543V18.3674C29.7414 18.1522 30.1771 17.5749 30.1771 16.896V14.8127C30.1771 13.9509 29.4763 13.2502 28.6146 13.2502ZM17.9375 17.4168V14.2918H21.0625V17.4168H17.9375ZM21.0625 18.4585V28.8752H17.9375V18.4585H21.0625ZM21.5834 10.1252C22.4451 10.1252 23.1459 10.8259 23.1459 11.6877C23.1459 12.5494 22.4451 13.2502 21.5834 13.2502H20.0209V11.6877C20.0209 10.8259 20.7216 10.1252 21.5834 10.1252ZM15.8542 11.6877C15.8542 10.8259 16.555 10.1252 17.4167 10.1252C18.2784 10.1252 18.9792 10.8259 18.9792 11.6877V13.2502H17.4167C16.555 13.2502 15.8542 12.5494 15.8542 11.6877ZM9.8646 14.8127C9.8646 14.5254 10.0982 14.2918 10.3854 14.2918H16.8959V17.4168H10.3854C10.0982 17.4168 9.8646 17.1832 9.8646 16.896V14.8127ZM10.9063 28.3543V18.4585H16.8959V28.8752H11.4271C11.1399 28.8752 10.9063 28.6416 10.9063 28.3543ZM27.5729 28.8752H22.1042V18.4585H28.0938V28.3543C28.0938 28.6416 27.8602 28.8752 27.5729 28.8752ZM29.1354 16.896C29.1354 17.1832 28.9018 17.4168 28.6146 17.4168H22.1042V14.2918H28.6146C28.9018 14.2918 29.1354 14.5254 29.1354 14.8127V16.896Z" fill="#6C6259"/>
</svg>
