<svg width="40" height="40" viewBox="0 0 40 40" fill="none" xmlns="http://www.w3.org/2000/svg">
<rect width="39.6364" height="39.6364" rx="8.78182" fill="#EBDCB4"/>
<path d="M27.5834 31.6668H12.4167C11.4516 31.6668 10.6667 30.882 10.6667 29.9168V10.0835C10.6667 9.11837 11.4516 8.3335 12.4167 8.3335H27.5834C28.5485 8.3335 29.3334 9.11837 29.3334 10.0835V29.9168C29.3334 30.882 28.5485 31.6668 27.5834 31.6668ZM12.4167 9.50016C12.095 9.50016 11.8334 9.76179 11.8334 10.0835V29.9168C11.8334 30.2385 12.095 30.5002 12.4167 30.5002H27.5834C27.9051 30.5002 28.1667 30.2385 28.1667 29.9168V10.0835C28.1667 9.76179 27.9051 9.50016 27.5834 9.50016H12.4167ZM25.8334 17.9585H14.1667C13.5233 17.9585 13 17.4352 13 16.7918V12.4168C13 11.7734 13.5233 11.2502 14.1667 11.2502H25.8334C26.4768 11.2502 27 11.7734 27 12.4168V16.7918C27 17.4352 26.4768 17.9585 25.8334 17.9585ZM14.1667 12.4168V16.7918H25.8342L25.8334 12.4168H14.1667ZM16.5 23.7918H13.5834C13.2614 23.7918 13 23.5305 13 23.2085V20.2918C13 19.9698 13.2614 19.7085 13.5834 19.7085H16.5C16.822 19.7085 17.0834 19.9698 17.0834 20.2918V23.2085C17.0834 23.5305 16.822 23.7918 16.5 23.7918ZM14.1667 22.6252H15.9167V20.8752H14.1667V22.6252ZM26.4167 23.7918H23.5C23.178 23.7918 22.9167 23.5305 22.9167 23.2085V20.2918C22.9167 19.9698 23.178 19.7085 23.5 19.7085H26.4167C26.7387 19.7085 27 19.9698 27 20.2918V23.2085C27 23.5305 26.7387 23.7918 26.4167 23.7918ZM24.0834 22.6252H25.8334V20.8752H24.0834V22.6252ZM21.4584 23.7918H18.5417C18.2197 23.7918 17.9584 23.5305 17.9584 23.2085V20.2918C17.9584 19.9698 18.2197 19.7085 18.5417 19.7085H21.4584C21.7804 19.7085 22.0417 19.9698 22.0417 20.2918V23.2085C22.0417 23.5305 21.7804 23.7918 21.4584 23.7918ZM19.125 22.6252H20.875V20.8752H19.125V22.6252ZM16.5 28.7502H13.5834C13.2614 28.7502 13 28.4888 13 28.1668V25.2502C13 24.9282 13.2614 24.6668 13.5834 24.6668H16.5C16.822 24.6668 17.0834 24.9282 17.0834 25.2502V28.1668C17.0834 28.4888 16.822 28.7502 16.5 28.7502ZM14.1667 27.5835H15.9167V25.8335H14.1667V27.5835ZM26.4167 28.7502H23.5C23.178 28.7502 22.9167 28.4888 22.9167 28.1668V25.2502C22.9167 24.9282 23.178 24.6668 23.5 24.6668H26.4167C26.7387 24.6668 27 24.9282 27 25.2502V28.1668C27 28.4888 26.7387 28.7502 26.4167 28.7502ZM24.0834 27.5835H25.8334V25.8335H24.0834V27.5835ZM21.4584 28.7502H18.5417C18.2197 28.7502 17.9584 28.4888 17.9584 28.1668V25.2502C17.9584 24.9282 18.2197 24.6668 18.5417 24.6668H21.4584C21.7804 24.6668 22.0417 24.9282 22.0417 25.2502V28.1668C22.0417 28.4888 21.7804 28.7502 21.4584 28.7502ZM19.125 27.5835H20.875V25.8335H19.125V27.5835Z" fill="#6C6259"/>
</svg>
