<svg width="40" height="40" viewBox="0 0 40 40" fill="none" xmlns="http://www.w3.org/2000/svg">
<rect width="39.6364" height="39.6364" rx="8.78182" fill="#EBDCB4"/>
<path d="M22.955 34.3352C22.2786 34.3352 21.6743 33.8409 21.0873 33.3609C20.7286 33.0672 20.237 32.6652 19.9996 32.6652C19.7626 32.6652 19.271 33.0672 18.9123 33.3609C18.2693 33.8865 17.54 34.4842 16.737 34.3002C15.9083 34.1119 15.5026 33.2405 15.1446 32.4722C14.966 32.0879 14.6953 31.5069 14.503 31.4139C14.299 31.3142 13.6656 31.4679 13.2466 31.5685C12.431 31.7649 11.507 31.9862 10.8536 31.4652C10.198 30.9415 10.2096 29.9879 10.2206 29.1469C10.226 28.7179 10.234 28.0699 10.096 27.8965C9.95965 27.7259 9.32865 27.5909 8.91098 27.5015C8.08498 27.3249 7.14965 27.1245 6.78298 26.3645C6.42165 25.6162 6.84331 24.7675 7.21465 24.0189C7.40765 23.6309 7.69898 23.0439 7.64798 22.8189C7.60198 22.6172 7.09998 22.2275 6.76798 21.9695C6.09565 21.4482 5.33331 20.8562 5.33331 20.0002C5.33331 19.1442 6.09565 18.5525 6.76831 18.0305C7.10031 17.7729 7.60231 17.3832 7.64831 17.1812C7.69931 16.9562 7.40798 16.3692 7.21531 15.9809C6.84365 15.2322 6.42231 14.3839 6.78398 13.6349C7.15065 12.8752 8.08598 12.6749 8.91165 12.4982C9.32931 12.4089 9.96031 12.2739 10.0963 12.1035C10.235 11.9299 10.227 11.2815 10.2216 10.8525C10.211 10.0115 10.1993 9.0582 10.8546 8.53453C11.5076 8.0132 12.4323 8.2352 13.2476 8.4312C13.6673 8.53187 14.3 8.6842 14.5036 8.5862C14.6963 8.4932 14.9666 7.91253 15.1456 7.52787C15.5033 6.7592 15.9086 5.8882 16.7373 5.69987C17.5393 5.51787 18.27 6.1132 18.9126 6.6392C19.2716 6.93287 19.7633 7.33487 20.0003 7.33487C20.2373 7.33487 20.729 6.93287 21.0876 6.63953C21.731 6.1132 22.46 5.51653 23.2633 5.69987C24.0916 5.8882 24.4973 6.75953 24.8553 7.5282C25.0343 7.91253 25.3046 8.49353 25.4973 8.58653C25.7016 8.68487 26.334 8.5322 26.753 8.43153C27.5686 8.23553 28.493 8.01353 29.1463 8.53487C29.802 9.05853 29.7903 10.0119 29.7793 10.8532C29.774 11.2822 29.766 11.9305 29.904 12.1035C30.0403 12.2739 30.6713 12.4092 31.089 12.4985C31.915 12.6752 32.8503 12.8752 33.217 13.6352C33.5783 14.3839 33.1566 15.2325 32.7853 15.9812C32.5923 16.3695 32.301 16.9562 32.352 17.1812C32.398 17.3832 32.9 17.7729 33.232 18.0305C33.9043 18.5525 34.6666 19.1442 34.6666 20.0002C34.6666 20.8562 33.9043 21.4479 33.2316 21.9699C32.8996 22.2275 32.3976 22.6169 32.3516 22.8195C32.3006 23.0445 32.592 23.6312 32.7846 24.0195C33.1563 24.7682 33.5776 25.6165 33.216 26.3655C32.8493 27.1252 31.914 27.3255 31.0883 27.5019C30.6706 27.5915 30.0396 27.7265 29.9033 27.8969C29.765 28.0705 29.773 28.7189 29.7783 29.1479C29.789 29.9885 29.8006 30.9419 29.1453 31.4655C28.4923 31.9869 27.5676 31.7645 26.7523 31.5689C26.3326 31.4682 25.7 31.3152 25.4963 31.4142C25.3036 31.5069 25.0333 32.0879 24.8543 32.4722C24.4966 33.2412 24.0913 34.1122 23.2626 34.3005C23.1586 34.3242 23.056 34.3352 22.955 34.3352ZM14.2966 30.0502C14.573 30.0502 14.838 30.0949 15.0823 30.2125C15.7033 30.5119 16.034 31.2222 16.3536 31.9092C16.512 32.2492 16.8413 32.9565 17.0323 32.9999C17.21 33.0312 17.79 32.5555 18.068 32.3282C18.6673 31.8382 19.2866 31.3315 19.9996 31.3315C20.7126 31.3315 21.3323 31.8385 21.9313 32.3282C22.2093 32.5555 22.772 33.0219 22.9676 32.9999C23.158 32.9562 23.4876 32.2492 23.6456 31.9092C23.965 31.2222 24.2956 30.5125 24.917 30.2125C25.549 29.9075 26.3183 30.0932 27.0633 30.2722C27.4216 30.3582 28.1686 30.5379 28.3126 30.4232C28.459 30.3065 28.4493 29.5349 28.4446 29.1642C28.435 28.4002 28.425 27.6105 28.861 27.0645C29.2943 26.5219 30.064 26.3572 30.8086 26.1979C31.1733 26.1199 31.9316 25.9575 32.0146 25.7859C32.092 25.6249 31.7526 24.9409 31.5896 24.6122C31.248 23.9239 30.8943 23.2119 31.051 22.5239C31.2026 21.8565 31.8183 21.3785 32.4133 20.9165C32.7353 20.6672 33.3333 20.2032 33.3333 20.0002C33.3333 19.7972 32.7353 19.3332 32.414 19.0835C31.8186 18.6215 31.203 18.1439 31.0513 17.4762C30.895 16.7882 31.2486 16.0762 31.5903 15.3879C31.7533 15.0592 32.093 14.3755 32.0153 14.2142C31.9323 14.0422 31.174 13.8802 30.8096 13.8022C30.065 13.6429 29.295 13.4782 28.8616 12.9359C28.426 12.3902 28.436 11.6002 28.4456 10.8365C28.4503 10.4659 28.46 9.69387 28.3136 9.5772C28.1703 9.46253 27.423 9.6422 27.064 9.7282C26.3193 9.9072 25.55 10.0925 24.9176 9.78753C24.2966 9.48787 23.966 8.77787 23.6463 8.0912C23.488 7.7512 23.159 7.04387 22.9676 7.00053C22.7843 6.96887 22.2096 7.44487 21.9316 7.67187C21.3326 8.1622 20.7133 8.66887 20.0003 8.66887C19.2873 8.66887 18.668 8.16187 18.0686 7.67187C17.7906 7.44453 17.2106 6.97087 17.0323 7.0002C16.8416 7.04353 16.512 7.75087 16.354 8.09087C16.0343 8.77753 15.704 9.48753 15.083 9.7872C14.451 10.0919 13.6816 9.9072 12.9363 9.72787C12.578 9.64153 11.8303 9.4622 11.687 9.57653C11.5406 9.69353 11.5503 10.4652 11.555 10.8359C11.5646 11.5999 11.5746 12.3899 11.1386 12.9352C10.7053 13.4779 9.93565 13.6425 9.19098 13.8019C8.82631 13.8799 8.06798 14.0422 7.98498 14.2139C7.90765 14.3749 8.24698 15.0589 8.40998 15.3875C8.75165 16.0759 9.10531 16.7879 8.94865 17.4759C8.79698 18.1432 8.18131 18.6212 7.58631 19.0832C7.26465 19.3332 6.66665 19.7972 6.66665 20.0002C6.66665 20.2032 7.26465 20.6675 7.58598 20.9169C8.18131 21.3789 8.79698 21.8562 8.94865 22.5239C9.10498 23.2119 8.75131 23.9235 8.40965 24.6122C8.24665 24.9409 7.90698 25.6245 7.98465 25.7859C8.06765 25.9582 8.82598 26.1202 9.19065 26.1982C9.93498 26.3575 10.705 26.5222 11.1383 27.0649C11.574 27.6105 11.564 28.4002 11.5543 29.1642C11.5496 29.5349 11.54 30.3069 11.6863 30.4235C11.8296 30.5365 12.577 30.3585 12.936 30.2722C13.3923 30.1622 13.8586 30.0502 14.2966 30.0502ZM15.8046 25.1382L25.138 15.8049C25.3983 15.5445 25.3983 15.1225 25.138 14.8622C24.8776 14.6019 24.4556 14.6019 24.1953 14.8622L14.862 24.1955C14.6016 24.4559 14.6016 24.8779 14.862 25.1382C14.9923 25.2685 15.1626 25.3335 15.3333 25.3335C15.504 25.3335 15.6743 25.2685 15.8046 25.1382ZM16.6666 19.0002C15.3803 19.0002 14.3333 17.9535 14.3333 16.6669C14.3333 15.3802 15.3803 14.3335 16.6666 14.3335C17.953 14.3335 19 15.3802 19 16.6669C19 17.9535 17.953 19.0002 16.6666 19.0002ZM16.6666 15.6669C16.1153 15.6669 15.6666 16.1155 15.6666 16.6669C15.6666 17.2182 16.1153 17.6669 16.6666 17.6669C17.218 17.6669 17.6666 17.2182 17.6666 16.6669C17.6666 16.1155 17.218 15.6669 16.6666 15.6669ZM23.3333 25.6669C22.047 25.6669 21 24.6199 21 23.3335C21 22.0472 22.047 21.0002 23.3333 21.0002C24.6196 21.0002 25.6666 22.0472 25.6666 23.3335C25.6666 24.6199 24.6196 25.6669 23.3333 25.6669ZM23.3333 22.3335C22.782 22.3335 22.3333 22.7822 22.3333 23.3335C22.3333 23.8849 22.782 24.3335 23.3333 24.3335C23.8846 24.3335 24.3333 23.8849 24.3333 23.3335C24.3333 22.7822 23.8846 22.3335 23.3333 22.3335Z" fill="#6C6259"/>
</svg>
