<svg width="34" height="34" viewBox="0 0 34 34" fill="none" xmlns="http://www.w3.org/2000/svg">
<rect width="33.6364" height="33.6364" rx="7.84848" fill="#EBDCB4"/>
<g clip-path="url(#clip0_7_7892)">
<path d="M26.038 20.0455H16.6689L23.6589 13.7137C24.052 13.3575 24.0821 12.7479 23.7261 12.3548L21.0521 9.40296C20.8796 9.21252 20.6433 9.10063 20.3866 9.08796C20.1299 9.07512 19.8837 9.16331 19.6933 9.33582L14.5347 14.0087L16.387 7.33204C16.4557 7.08439 16.4239 6.82488 16.2974 6.60118C16.1708 6.37752 15.9648 6.21654 15.7172 6.1478L11.8793 5.08303C11.6317 5.01437 11.3721 5.0462 11.1485 5.17265C10.9248 5.29918 10.7638 5.5052 10.6951 5.75286L6.23805 21.8373C6.23793 21.8378 6.23789 21.8383 6.23773 21.8387C6.0849 22.1951 6 22.5873 6 22.9989C6 24.6275 7.32493 25.9524 8.95345 25.9524H26.038C26.5685 25.9524 27 25.5208 27 24.9904V21.0075C27 20.4771 26.5684 20.0455 26.038 20.0455ZM19.0388 24.5235C18.8689 24.5235 18.7312 24.6612 18.7312 24.8311V25.3372H16.7952V20.6607H18.7312V23.6006C18.7312 23.7705 18.8689 23.9083 19.0388 23.9083C19.2087 23.9083 19.3464 23.7705 19.3464 23.6006V20.6607H21.2823V25.3372H19.3464V24.8311C19.3464 24.6612 19.2087 24.5235 19.0388 24.5235ZM7.97051 17.8749L9.72828 18.3625C9.72828 18.3625 7.25094 20.5869 7.20971 20.6172L7.97051 17.8749ZM8.65256 15.4165L11.9658 16.3357L10.2524 17.8878C10.2246 17.8684 10.1934 17.8531 10.1589 17.8435L8.13499 17.282L8.65256 15.4165ZM14.691 14.6972L17.8305 18.1631L16.3957 19.4628L13.2562 15.9969L14.691 14.6972ZM16.5818 12.9844L19.7213 16.4503L18.2865 17.75L15.147 14.2841L16.5818 12.9844ZM18.4726 11.2717L21.6121 14.7376L20.1773 16.0373L17.0378 12.5714L18.4726 11.2717ZM15.7525 20.0455H13.4813L11.3654 17.7097L12.8002 16.41L15.9398 19.8759L15.7525 20.0455ZM10.9094 18.1227L12.6512 20.0455C12.6512 20.0455 8.83795 20.0476 8.78078 20.0509L10.9094 18.1227ZM13.6288 20.6607V25.3372H11.6928V20.6607H13.6288ZM14.2441 20.6607H16.18V25.3372H14.2441V20.6607ZM21.8976 20.6607H23.8336V25.3372H21.8976V20.6607ZM20.1063 9.79179C20.175 9.72961 20.2641 9.69811 20.3563 9.70241C20.4488 9.70697 20.534 9.74733 20.5962 9.81599L23.2701 12.7678C23.3985 12.9095 23.3876 13.1293 23.2459 13.2577L22.0682 14.3245L18.9285 10.8587L20.1063 9.79179ZM12.5053 15.8469L8.81699 14.8237L9.33457 12.9582L13.8408 14.2084L13.6819 14.7812L12.5053 15.8469ZM10.0166 10.4998L11.2381 10.8387C11.2657 10.8463 11.2933 10.85 11.3205 10.85C11.4553 10.85 11.579 10.7607 11.6168 10.6245C11.6622 10.4608 11.5663 10.2913 11.4026 10.2459L10.1811 9.90696L10.6986 8.04149L15.2049 9.29164L14.6873 11.1571L12.4744 10.5432C12.3107 10.4978 12.1412 10.5936 12.0957 10.7574C12.0503 10.9211 12.1462 11.0906 12.3099 11.136L14.5228 11.75L14.0053 13.6154L9.49904 12.3654L10.0166 10.4998ZM11.2879 5.91733C11.3127 5.82808 11.3707 5.7538 11.4513 5.70819C11.5319 5.66258 11.6255 5.6511 11.7148 5.67587L15.5527 6.74059C15.642 6.76537 15.7162 6.8234 15.7618 6.90404C15.8075 6.98468 15.8189 7.07823 15.7942 7.16748L15.3693 8.6988L10.8631 7.44865L11.2879 5.91733ZM6.61523 22.9989C6.61523 21.7096 7.66417 20.6607 8.95345 20.6607H11.0776V25.3372H8.95345C7.66417 25.3372 6.61523 24.2883 6.61523 22.9989ZM26.3848 24.9904C26.3848 25.1816 26.2292 25.3372 26.038 25.3372H24.4488V20.6607H26.038C26.2292 20.6607 26.3848 20.8163 26.3848 21.0075V24.9904Z" fill="#6C6259"/>
<path d="M9.00461 21.8223C8.35578 21.8223 7.82791 22.3501 7.82791 22.999C7.82791 23.6478 8.35578 24.1757 9.00461 24.1757C9.65343 24.1757 10.1813 23.6478 10.1813 22.999C10.1813 22.3501 9.65343 21.8223 9.00461 21.8223ZM9.00461 23.5605C8.69502 23.5605 8.44315 23.3086 8.44315 22.999C8.44315 22.6894 8.69502 22.4375 9.00461 22.4375C9.31419 22.4375 9.56607 22.6894 9.56607 22.999C9.56607 23.3085 9.31419 23.5605 9.00461 23.5605Z" fill="#6C6259"/>
</g>
<defs>
<clipPath id="clip0_7_7892">
<rect width="21" height="21" fill="white" transform="translate(6 5)"/>
</clipPath>
</defs>
</svg>
