<svg width="34" height="34" viewBox="0 0 34 34" fill="none" xmlns="http://www.w3.org/2000/svg">
<rect width="33.6364" height="33.6364" rx="7.84848" fill="#EBDCB4"/>
<path d="M25.6484 21.7669H13.6451V20.7065C13.6451 20.5124 13.4876 20.3549 13.2935 20.3549H12.2331V8.35156C12.2331 8.15739 12.0757 8 11.8815 8H8.35156C8.15739 8 8 8.15739 8 8.35156V25.6484C8 25.8426 8.15739 26 8.35156 26H25.6484C25.8426 26 26 25.8426 26 25.6484V22.1185C26 21.9243 25.8426 21.7669 25.6484 21.7669ZM11.53 8.70312V9.76498H10.4695C10.2754 9.76498 10.118 9.92238 10.118 10.1165C10.118 10.3107 10.2754 10.4681 10.4695 10.4681H11.53V11.53H10.9531C10.759 11.53 10.6016 11.6874 10.6016 11.8815C10.6016 12.0757 10.759 12.2331 10.9531 12.2331H11.53V13.295H10.4695C10.2754 13.295 10.118 13.4523 10.118 13.6465C10.118 13.8406 10.2754 13.9981 10.4695 13.9981H11.53V15.0599H10.9531C10.759 15.0599 10.6016 15.2173 10.6016 15.4115C10.6016 15.6056 10.759 15.7631 10.9531 15.7631H11.53V16.8249H10.4695C10.2754 16.8249 10.118 16.9824 10.118 17.1765C10.118 17.3706 10.2754 17.528 10.4695 17.528H11.53V18.5899H10.9531C10.759 18.5899 10.6016 18.7473 10.6016 18.9415C10.6016 19.1356 10.759 19.293 10.9531 19.293H11.53V20.3549H8.70312V8.70312H11.53ZM8.70312 21.0581H12.9419V25.2969H8.70312V21.0581ZM25.2969 25.2969H13.6451V22.47H14.7069V23.8835C14.7069 24.0776 14.8643 24.235 15.0585 24.235C15.2526 24.235 15.4101 24.0776 15.4101 23.8835V22.47H16.4719V23.3984C16.4719 23.5926 16.6293 23.75 16.8235 23.75C17.0176 23.75 17.175 23.5926 17.175 23.3984V22.47H18.2369V23.8835C18.2369 24.0776 18.3943 24.235 18.5885 24.235C18.7826 24.235 18.94 24.0776 18.94 23.8835V22.47H20.0019V23.3984C20.0019 23.5926 20.1593 23.75 20.3534 23.75C20.5476 23.75 20.705 23.5926 20.705 23.3984V22.47H21.7669V23.8835C21.7669 24.0776 21.9243 24.235 22.1184 24.235C22.3126 24.235 22.47 24.0776 22.47 23.8835V22.47H23.5319V23.3984C23.5319 23.5926 23.6893 23.75 23.8834 23.75C24.0776 23.75 24.235 23.5926 24.235 23.3984V22.47H25.2969V25.2969Z" fill="#6C6259"/>
<path d="M13.8502 18.0687L18.9831 20.7224C18.9849 20.7233 18.9868 20.724 18.9886 20.7249C19.0902 20.7752 19.2048 20.7723 19.3004 20.7249C19.3187 20.716 23.5261 18.5404 24.4388 18.0686C24.547 18.0145 24.6289 17.8945 24.6289 17.7563C24.6288 16.3409 24.629 11.7634 24.6286 11.7352C24.6221 11.4955 24.4177 11.4202 24.4142 11.4173C24.4142 11.4173 24.4141 11.4173 24.4141 11.4173L19.2883 9.12056C19.1968 9.07957 19.0923 9.07957 19.0008 9.12056L13.8749 11.4174C13.8749 11.4174 13.8749 11.4174 13.8748 11.4174C13.8713 11.4204 13.6602 11.5011 13.6602 11.7413V17.7564C13.6602 17.8938 13.7408 18.0139 13.8502 18.0687ZM23.9258 17.5424L19.4961 19.8326V14.609L23.9258 12.3188V17.5424ZM18.793 19.8326L14.3633 17.5424V12.3188L18.793 14.609V19.8326ZM19.1445 9.82664L23.4681 11.7639L19.1445 13.9992L14.821 11.7639L19.1445 9.82664Z" fill="#6C6259"/>
</svg>
