<svg width="12" height="12" viewBox="0 0 12 12" fill="none" xmlns="http://www.w3.org/2000/svg">
<path d="M2.78461 11.7456C2.61512 11.7456 2.45311 11.6928 2.31593 11.5929C2.03601 11.3893 1.91971 11.0315 2.02644 10.7023L3.07606 7.47228L0.32867 5.47642C0.0484692 5.27253 -0.0675262 4.91441 0.0392049 4.58557C0.146242 4.25596 0.450867 4.03474 0.797016 4.03474H4.19276L5.24208 0.80524C5.34934 0.475859 5.65389 0.254639 5.99996 0.254639C6.34632 0.254639 6.65089 0.476013 6.75767 0.80524L7.80745 4.03474H11.203C11.5492 4.03474 11.8538 4.25611 11.9607 4.58526C12.0677 4.91441 11.9512 5.2724 11.6717 5.47612L8.92422 7.47228L9.97354 10.702C10.0805 11.0315 9.9642 11.3892 9.68436 11.5929C9.41043 11.7922 9.02108 11.7922 8.74726 11.5929L6.00012 9.59718L3.2528 11.5932C3.11583 11.6928 2.95389 11.7456 2.78461 11.7456ZM0.797016 4.71779C0.747606 4.71779 0.703862 4.74949 0.688779 4.79661C0.673466 4.84351 0.690132 4.89481 0.730124 4.92386L3.87892 7.21143L2.67619 10.9134C2.66103 10.9603 2.67762 11.0116 2.71774 11.0407C2.76715 11.0767 2.80206 11.0767 2.8514 11.0407L6.00012 8.7527L9.14869 11.0405C9.19804 11.0764 9.23347 11.0764 9.28265 11.0407C9.32261 11.0116 9.33954 10.9603 9.32399 10.9131L8.12109 7.21145L11.2701 4.92373C11.3101 4.89468 11.3265 4.84341 11.3115 4.79648C11.296 4.74949 11.2525 4.71779 11.2031 4.71779H7.31101L6.10843 1.01633C6.07781 0.922129 5.92243 0.922129 5.89165 1.01633L4.68913 4.71779H0.797016Z" fill="#404040"/>
</svg>
