<svg width="45" height="45" viewBox="0 0 45 45" fill="none" xmlns="http://www.w3.org/2000/svg">
<g filter="url(#filter0_i_166_8194)">
<circle cx="22.4998" cy="22.4998" r="22.4998" fill="#565656"/>
</g>
<g clip-path="url(#clip0_166_8194)">
<path d="M22.1208 30.25C25.0142 30.25 23.9825 28.4183 24.2058 27.8917C24.2025 27.4983 24.1992 27.12 24.2125 26.89C24.3958 26.9417 24.8283 27.1608 25.7217 28.0292C27.1008 29.4208 27.4533 30.25 28.5675 30.25H30.6183C31.2683 30.25 31.6067 29.9808 31.7758 29.755C31.9392 29.5367 32.0992 29.1533 31.9242 28.5567C31.4667 27.12 28.7983 24.6392 28.6325 24.3775C28.6575 24.3292 28.6975 24.265 28.7183 24.2317H28.7167C29.2433 23.5358 31.2533 20.5242 31.5492 19.3192C31.55 19.3175 31.5508 19.315 31.5508 19.3125C31.7108 18.7625 31.5642 18.4058 31.4125 18.2042C31.1842 17.9025 30.8208 17.75 30.33 17.75H28.2792C27.5925 17.75 27.0717 18.0958 26.8083 18.7267C26.3675 19.8475 25.1292 22.1525 24.2008 22.9683C24.1725 21.8125 24.1917 20.93 24.2067 20.2742C24.2367 18.995 24.3333 17.75 23.0058 17.75H19.7825C18.9508 17.75 18.155 18.6583 19.0167 19.7367C19.77 20.6817 19.2875 21.2083 19.45 23.83C18.8167 23.1508 17.69 21.3167 16.8933 18.9725C16.67 18.3383 16.3317 17.7508 15.3792 17.7508H13.3283C12.4967 17.7508 12 18.2042 12 18.9633C12 20.6683 15.7742 30.25 22.1208 30.25ZM15.3792 19.0008C15.56 19.0008 15.5783 19.0008 15.7125 19.3817C16.5283 21.7842 18.3583 25.3392 19.695 25.3392C20.6992 25.3392 20.6992 24.31 20.6992 23.9225L20.6983 20.8375C20.6433 19.8167 20.2717 19.3083 20.0275 19L22.9508 19.0033C22.9525 19.0175 22.9342 22.4158 22.9592 23.2392C22.9592 24.4083 23.8875 25.0783 25.3367 23.6117C26.8658 21.8858 27.9233 19.3058 27.9658 19.2008C28.0283 19.0508 28.0825 19 28.2792 19H30.33H30.3383C30.3375 19.0025 30.3375 19.005 30.3367 19.0075C30.1492 19.8825 28.2983 22.6708 27.6792 23.5367C27.6692 23.55 27.66 23.5642 27.6508 23.5783C27.3783 24.0233 27.1567 24.515 27.6883 25.2067H27.6892C27.7375 25.265 27.8633 25.4017 28.0467 25.5917C28.6167 26.18 30.5717 28.1917 30.745 28.9917C30.63 29.01 30.505 28.9967 28.5675 29.0008C28.155 29.0008 27.8325 28.3842 26.6017 27.1425C25.495 26.0658 24.7767 25.6258 24.1225 25.6258C22.8525 25.6258 22.945 26.6567 22.9567 27.9033C22.9608 29.255 22.9525 28.8275 22.9617 28.9125C22.8875 28.9417 22.675 29 22.1208 29C16.8333 29 13.39 20.6075 13.2575 19.0033C13.3033 18.9992 13.9342 19.0017 15.3792 19.0008Z" fill="white"/>
</g>
<defs>
<filter id="filter0_i_166_8194" x="0" y="0" width="44.9995" height="50.1428" filterUnits="userSpaceOnUse" color-interpolation-filters="sRGB">
<feFlood flood-opacity="0" result="BackgroundImageFix"/>
<feBlend mode="normal" in="SourceGraphic" in2="BackgroundImageFix" result="shape"/>
<feColorMatrix in="SourceAlpha" type="matrix" values="0 0 0 0 0 0 0 0 0 0 0 0 0 0 0 0 0 0 127 0" result="hardAlpha"/>
<feOffset dy="5.1428"/>
<feGaussianBlur stdDeviation="2.5714"/>
<feComposite in2="hardAlpha" operator="arithmetic" k2="-1" k3="1"/>
<feColorMatrix type="matrix" values="0 0 0 0 1 0 0 0 0 1 0 0 0 0 1 0 0 0 0.25 0"/>
<feBlend mode="normal" in2="shape" result="effect1_innerShadow_166_8194"/>
</filter>
<clipPath id="clip0_166_8194">
<rect width="20" height="20" fill="white" transform="translate(12 14)"/>
</clipPath>
</defs>
</svg>
