<svg width="16" height="16" viewBox="0 0 16 16" fill="none" xmlns="http://www.w3.org/2000/svg">
<path d="M8 16C3.58875 16 0 12.4113 0 8C0 3.58875 3.58875 0 8 0C12.411 0 16 3.58875 16 8C16 12.4113 12.411 16 8 16ZM8 1C4.14 1 1 4.14 1 8C1 11.86 4.14 15 8 15C11.8597 15 15 11.8597 15 8C15 4.14025 11.8597 1 8 1Z" fill="#F2F2F2"/>
<path d="M8 14C7.17275 14 6.5 13.3273 6.5 12.5C6.5 11.6727 7.17275 11 8 11C8.82725 11 9.5 11.6727 9.5 12.5C9.5 13.3273 8.82725 14 8 14ZM8 12C7.72425 12 7.5 12.2242 7.5 12.5C7.5 12.7758 7.72425 13 8 13C8.2755 13 8.5 12.7758 8.5 12.5C8.5 12.2242 8.2755 12 8 12Z" fill="#F2F2F2"/>
<path d="M8 10.5C7.18425 10.5 6.5185 9.8455 6.5005 9.03425C6.45225 8.64625 6 4.986 6 4C6 2.89725 6.89725 2 8 2C9.10275 2 10 2.89725 10 4C10 4.986 9.54775 8.64625 9.4995 9.03425C9.4815 9.8455 8.81575 10.5 8 10.5ZM8 3C7.4485 3 7 3.4485 7 4C7 4.95775 7.49125 8.89825 7.496 8.938C7.49875 8.9585 7.5 8.97925 7.5 9C7.5 9.27575 7.72425 9.5 8 9.5C8.2755 9.5 8.5 9.27575 8.5 9C8.5 8.97925 8.50125 8.9585 8.504 8.938C8.50875 8.89825 9 4.95775 9 4C9 3.4485 8.5515 3 8 3Z" fill="#F2F2F2"/>
</svg>
