<svg width="35" height="35" viewBox="0 0 35 35" fill="none" xmlns="http://www.w3.org/2000/svg">
<g filter="url(#filter0_i_7_7913)">
<circle cx="17.5002" cy="17.5001" r="17.5" fill="url(#paint0_linear_7_7913)"/>
</g>
<g clip-path="url(#clip0_7_7913)">
<path d="M22.256 19.4388L21.249 18.4318C20.9743 18.1571 20.5946 18.0194 20.208 18.0542C19.8211 18.0889 19.4722 18.2919 19.2508 18.611L18.9001 19.1164C18.423 19.0315 17.5003 18.7909 16.8552 18.1459C16.2099 17.5005 15.9695 16.5773 15.8846 16.101L16.3902 15.7502C16.7093 15.5288 16.9123 15.1798 16.9469 14.7929C16.9816 14.406 16.8439 14.0266 16.5693 13.752L15.5624 12.7451C15.1577 12.3405 14.5478 12.2439 14.0446 12.5047C13.1623 12.9618 12.5827 13.8186 12.4125 14.9174C12.1352 16.7075 12.9627 18.8194 14.5722 20.4288C15.9759 21.8325 17.7616 22.6415 19.3828 22.6415C19.6206 22.6415 19.8548 22.6241 20.0837 22.5886C21.1825 22.4184 22.0393 21.8388 22.4964 20.9565C22.4964 20.9565 22.4964 20.9565 22.4964 20.9565C22.7571 20.4532 22.6605 19.8433 22.256 19.4388ZM21.4719 20.4257C21.1086 21.1268 20.4204 21.3688 19.9071 21.4483C18.4956 21.6669 16.7218 20.9466 15.3881 19.6129C14.0545 18.2793 13.3341 16.5055 13.5527 15.094C13.6322 14.5806 13.8742 13.8925 14.5754 13.5292C14.5944 13.5194 14.6154 13.5146 14.6367 13.5146C14.6759 13.5146 14.7161 13.5307 14.7464 13.561L15.7533 14.5679C15.7951 14.6098 15.8005 14.6574 15.7976 14.69C15.7946 14.7225 15.781 14.7684 15.7323 14.8022L14.9369 15.3541C14.7706 15.4695 14.6769 15.6637 14.6901 15.8657C14.6952 15.942 14.8264 17.7488 16.0393 18.9617C17.2521 20.1746 19.0589 20.3059 19.1352 20.3108C19.3371 20.3238 19.5315 20.2304 19.6469 20.064L20.1988 19.2687C20.2325 19.22 20.2784 19.2063 20.311 19.2034C20.3436 19.2004 20.3911 19.2058 20.4331 19.2477L21.44 20.2546C21.4868 20.3013 21.4999 20.3717 21.4719 20.4257Z" fill="white"/>
<path d="M24.2176 10.7827C22.4232 8.98828 20.0375 8.00009 17.4999 8.00009C14.9622 8.00009 12.5765 8.98828 10.7821 10.7827C9.25701 12.3077 8.28883 14.3262 8.05578 16.4661C7.83546 18.4891 8.27513 20.5483 9.2952 22.2938L8.30519 25.9885C8.25183 26.1876 8.30875 26.4 8.45456 26.5458C8.60029 26.6915 8.81281 26.7485 9.01179 26.6951L12.7065 25.7052C14.1576 26.5532 15.8256 27.0001 17.5093 27.0001C17.8508 27.0001 18.193 26.9817 18.5342 26.9445C20.6741 26.7115 22.6926 25.7433 24.2176 24.2182C26.012 22.4238 27.0002 20.0381 27.0002 17.5005C27.0002 14.9628 26.012 12.5771 24.2176 10.7827ZM23.4017 23.4023C20.6433 26.1606 16.4066 26.6508 13.0988 24.5944C13.0064 24.537 12.9008 24.5074 12.7941 24.5074C12.7441 24.5074 12.694 24.5139 12.6448 24.5271L9.67839 25.3219L10.4733 22.3556C10.5145 22.2014 10.4902 22.0371 10.406 21.9016C8.34946 18.5937 8.83968 14.3569 11.598 11.5986C14.8523 8.34432 20.1474 8.34432 23.4017 11.5986C26.656 14.8529 26.656 20.148 23.4017 23.4023Z" fill="white"/>
</g>
<defs>
<filter id="filter0_i_7_7913" x="0.000244141" y="9.15527e-05" width="35" height="39" filterUnits="userSpaceOnUse" color-interpolation-filters="sRGB">
<feFlood flood-opacity="0" result="BackgroundImageFix"/>
<feBlend mode="normal" in="SourceGraphic" in2="BackgroundImageFix" result="shape"/>
<feColorMatrix in="SourceAlpha" type="matrix" values="0 0 0 0 0 0 0 0 0 0 0 0 0 0 0 0 0 0 127 0" result="hardAlpha"/>
<feOffset dy="4"/>
<feGaussianBlur stdDeviation="2"/>
<feComposite in2="hardAlpha" operator="arithmetic" k2="-1" k3="1"/>
<feColorMatrix type="matrix" values="0 0 0 0 1 0 0 0 0 1 0 0 0 0 1 0 0 0 0.25 0"/>
<feBlend mode="normal" in2="shape" result="effect1_innerShadow_7_7913"/>
</filter>
<linearGradient id="paint0_linear_7_7913" x1="17.5002" y1="9.15527e-05" x2="17.5002" y2="35.0001" gradientUnits="userSpaceOnUse">
<stop stop-color="#62FE71"/>
<stop offset="1" stop-color="#2BE73D"/>
</linearGradient>
<clipPath id="clip0_7_7913">
<rect width="19" height="19" fill="white" transform="translate(8.00024 8.00009)"/>
</clipPath>
</defs>
</svg>
